<svg width="1407" height="119" viewBox="0 0 1407 119" fill="none" xmlns="http://www.w3.org/2000/svg">
<path d="M0.000740556 117.213V107.888H7.1745C8.31718 107.888 9.46208 107.615 10.607 107.077C11.7497 106.546 12.6842 105.662 13.4129 104.432C14.1372 103.193 14.5082 101.616 14.5082 99.6876V20.731C14.5082 18.4849 14.1365 16.6921 13.4129 15.3435C12.6842 14.0127 11.7497 13.073 10.607 12.5346C9.46208 11.997 8.31718 11.7252 7.1745 11.7252H0.000740556V2.40526H57.3975V11.7252H50.0682C48.6093 11.7252 47.3348 12.0229 46.2462 12.6153C45.1524 13.21 44.323 14.1446 43.7476 15.4294C43.1729 16.7158 42.8937 18.5412 42.8937 20.8969V99.3595C42.8937 101.189 43.2292 102.768 43.909 104.109C44.577 105.451 45.4353 106.416 46.4802 107.003C47.5192 107.591 48.7137 107.888 50.0675 107.888H57.3968V117.213H0H0.000740556Z" fill="white" fill-opacity="0.47"/>
<path d="M64.7285 117.213V107.888H69.2503C71.2224 107.888 72.9665 107.671 74.4757 107.245C75.9857 106.812 77.1543 105.877 77.9889 104.431C78.8183 102.982 79.2316 100.812 79.2316 97.9184V21.0583C79.2316 18.2694 78.8183 16.2337 77.9889 14.9473C77.1543 13.661 76.059 12.8019 74.7112 12.3761C73.3575 11.9481 71.9534 11.7259 70.5004 11.7259H64.7293V2.40596H102.003L156.594 78.9453V21.0583C156.594 18.5975 156.229 16.6921 155.505 15.3443C154.776 14.0135 153.786 13.0737 152.543 12.5353C151.295 11.9977 149.835 11.7259 148.177 11.7259H142.407V2.40596H183.577V11.7259H177.806C176.143 11.7259 174.66 12.0236 173.361 12.616C172.062 13.2107 171.046 14.2238 170.324 15.6716C169.593 17.1135 169.228 19.1285 169.228 21.7012V117.214H153.631L91.7129 30.2242V97.9191C91.7129 100.813 92.0284 102.983 92.6475 104.432C93.2717 105.878 94.236 106.812 95.5349 107.246C96.8331 107.672 98.3608 107.889 100.136 107.889H106.06V117.214H64.7293L64.7285 117.213Z" fill="white" fill-opacity="0.47"/>
<path d="M228.652 118.82C220.853 118.82 214.434 118.096 209.388 116.65C204.34 115.202 200.394 113.353 197.538 111.101C194.673 108.851 192.67 106.414 191.533 103.786C190.388 101.163 189.812 98.7214 189.812 96.4708C189.812 92.0793 190.723 88.6713 192.547 86.2586C194.365 83.8466 196.697 82.1588 199.56 81.1946C202.424 80.2304 205.514 79.7469 208.842 79.7469C208.942 86.5015 210.092 91.9913 212.274 96.2287C214.458 100.466 217.265 103.545 220.697 105.475C224.13 107.404 227.816 108.369 231.768 108.369C237.488 108.369 241.929 106.736 245.107 103.465C248.273 100.191 249.863 96.4701 249.863 92.2897C249.863 88.752 248.794 85.721 246.666 83.2046C244.533 80.6874 241.465 78.3243 237.464 76.1293C233.457 73.9335 228.652 71.6518 223.037 69.2961C215.342 66.0792 209.312 62.6467 204.947 59.0039C200.575 55.3604 197.482 51.3673 195.664 47.0247C193.847 42.6843 192.937 38.0455 192.937 33.1163C192.937 26.4683 194.73 20.7342 198.317 15.9117C201.904 11.087 206.76 7.36353 212.901 4.73604C219.03 2.113 225.892 0.796997 233.489 0.796997C241.491 0.796997 248.095 1.78563 253.297 3.7718C258.491 5.75649 262.314 8.2492 264.756 11.2484C267.198 14.2536 268.424 17.3581 268.424 20.575C268.424 24.5459 266.834 27.8095 263.667 30.3829C260.494 32.9549 255.164 34.242 247.681 34.242C247.681 30.7043 247.03 27.1667 245.733 23.629C244.426 20.0929 242.504 17.1677 239.956 14.8668C237.407 12.56 234.21 11.4099 230.364 11.4099C226.102 11.4099 222.591 12.4851 219.839 14.6254C217.08 16.7707 215.707 20.0929 215.707 24.5955C215.707 27.1667 216.382 29.6357 217.73 31.9914C219.084 34.3552 221.73 36.8162 225.689 39.3881C229.64 41.9615 235.306 44.7993 242.69 47.9096C250.277 51.0215 256.259 54.3658 260.624 57.9597C264.991 61.5536 268.108 65.4364 269.982 69.6175C271.856 73.7987 272.79 78.5161 272.79 83.7689C272.79 90.7375 270.997 96.8485 267.409 102.099C263.821 107.355 258.726 111.455 252.121 114.4C245.523 117.349 237.699 118.822 228.652 118.822L228.652 118.82Z" fill="white" fill-opacity="0.47"/>
<path d="M301.176 117.213V107.888H305.859C307.832 107.888 309.6 107.646 311.158 107.164C312.716 106.683 313.942 105.716 314.826 104.27C315.711 102.822 316.149 100.596 316.149 97.5955V13.0122H304.609C300.033 13.0122 296.86 13.9031 295.098 15.6708C293.322 17.44 292.233 20.0927 291.82 23.6303L290.416 34.8801H279.029L279.809 2.40596H380.876L381.661 34.8801H370.269L369.027 23.6303C368.606 20.0927 367.518 17.44 365.749 15.6708C363.98 13.9024 360.758 13.0122 356.077 13.0122H344.697V97.9184C344.697 100.812 345.136 102.982 346.02 104.431C346.905 105.877 348.124 106.811 349.682 107.245C351.246 107.671 353.009 107.888 354.989 107.888H359.67V117.213H301.176Z" fill="white" fill-opacity="0.47"/>
<path d="M420.808 69.1329H450.752L441.704 38.9027C441.08 36.764 440.462 34.6179 439.837 32.4703C439.212 30.3316 438.612 28.1047 438.044 25.7986C437.469 23.4985 436.924 21.1598 436.405 18.8041C435.884 21.062 435.31 23.3059 434.692 25.5564C434.066 27.8092 433.435 30.0101 432.818 32.157C432.193 34.2957 431.512 36.4411 430.79 38.5872L420.808 69.1329ZM383.373 117.211V107.891H384.778C386.539 107.891 388.186 107.594 389.688 107.001C391.198 106.413 392.602 105.318 393.899 103.704C395.197 102.096 396.422 99.7401 397.566 96.6298L430.944 2.40221H456.213L488.657 97.5992C489.592 100.062 490.654 102.04 491.847 103.544C493.049 105.046 494.426 106.14 495.985 106.847C497.543 107.539 499.263 107.891 501.132 107.891H503.005V117.211H447.946V107.891H453.715C455.694 107.891 457.358 107.514 458.706 106.759C460.061 106.011 460.734 104.564 460.734 102.419C460.734 101.46 460.653 100.513 460.499 99.6031C460.345 98.6952 460.135 97.8102 459.875 96.9512C459.615 96.0914 459.378 95.4538 459.175 95.028L454.03 79.7466H417.529L413.473 92.2879C413.268 93.147 413.008 94.1689 412.693 95.3434C412.384 96.5254 412.093 97.731 411.839 98.9618C411.574 100.193 411.45 101.293 411.45 102.258C411.45 104.083 411.939 105.473 412.929 106.438C413.919 107.403 415.607 107.892 418 107.892H425.019V117.212H383.373V117.211Z" fill="white" fill-opacity="0.47"/>
<path d="M506.746 117.213V107.889H511.268C513.24 107.889 514.984 107.671 516.493 107.245C518.001 106.812 519.17 105.877 520.005 104.431C520.834 102.982 521.248 100.813 521.248 97.9184V21.0584C521.248 18.2695 520.834 16.2337 520.005 14.9474C519.17 13.661 518.082 12.802 516.729 12.3762C515.38 11.9481 513.969 11.7259 512.516 11.7259H506.746V2.40601H544.02L598.608 78.9454V21.0584C598.608 18.5975 598.244 16.6921 597.52 15.3443C596.791 14.0135 595.802 13.0737 594.559 12.5353C593.309 11.9977 591.849 11.7259 590.192 11.7259H584.422V2.40601H625.599V11.7259H619.828C618.159 11.7259 616.682 12.0236 615.375 12.6161C614.076 13.2107 613.063 14.2239 612.338 15.6716C611.61 17.1135 611.244 19.1285 611.244 21.7012V117.214H595.648L533.728 30.2243V97.9191C533.728 100.813 534.043 102.983 534.662 104.432C535.286 105.878 536.252 106.812 537.552 107.246C538.849 107.672 540.382 107.889 542.151 107.889H548.077V117.214H506.747L506.746 117.213Z" fill="white" fill-opacity="0.47"/>
<path d="M650.549 117.213V107.889H655.232C657.205 107.889 658.973 107.646 660.531 107.164C662.089 106.683 663.315 105.717 664.199 104.27C665.084 102.822 665.523 100.596 665.523 97.5956V13.0123H653.982C649.406 13.0123 646.233 13.9031 644.472 15.6708C642.695 17.44 641.606 20.0927 641.193 23.6304L639.789 34.8802H628.402L629.182 2.40601H730.254L731.034 34.8802H719.648L718.399 23.6304C717.978 20.0927 716.89 17.44 715.121 15.6708C713.352 13.9024 710.13 13.0123 705.448 13.0123H694.069V97.9184C694.069 100.813 694.509 102.982 695.392 104.431C696.277 105.877 697.496 106.811 699.054 107.245C700.618 107.671 702.382 107.889 704.361 107.889H709.042V117.213H650.549H650.549Z" fill="white" fill-opacity="0.47"/>
<path d="M835.999 118.82C823.835 118.82 813.642 116.359 805.43 111.424C797.218 106.494 791.076 99.6049 787.025 90.7604C782.968 81.9182 780.945 71.5474 780.945 59.6474C780.945 48.0696 783.023 37.8603 787.179 29.0159C791.335 20.1714 797.526 13.2576 805.738 8.27364C813.957 3.2897 824.144 0.796997 836.314 0.796997C844.632 0.796997 851.546 1.63161 857.051 3.28972C862.567 4.95301 866.698 7.2287 869.457 10.1228C872.209 13.0169 873.587 16.2324 873.587 19.77C873.587 23.9512 871.738 27.4881 868.052 30.3829C864.361 33.277 858.868 34.7241 851.595 34.7241C851.595 31.1864 851.076 27.6488 850.037 24.1126C848.999 20.575 847.247 17.6565 844.811 15.3489C842.362 13.0413 839.066 11.892 834.904 11.892C828.881 11.892 824.087 13.7411 820.557 17.4387C817.024 21.1378 814.495 26.549 812.992 33.6791C811.483 40.8107 810.729 49.4618 810.729 59.6474C810.729 70.2603 811.718 78.919 813.697 85.6151C815.671 92.3186 818.842 97.224 823.209 100.328C827.575 103.438 833.394 104.992 840.68 104.992C846.185 104.992 850.866 104.162 854.711 102.499C858.559 100.842 861.812 98.7754 864.466 96.3086C867.113 93.8478 869.327 91.4284 871.096 89.0719C871.818 89.7155 872.418 90.7605 872.889 92.2082C873.352 93.6545 873.587 94.9734 873.587 96.1472C873.587 98.6155 873.012 101.133 871.874 103.705C870.724 106.278 868.751 108.714 865.943 111.02C863.142 113.327 859.289 115.201 854.402 116.65C849.517 118.096 843.376 118.819 835.997 118.819L835.999 118.82Z" fill="white" fill-opacity="0.47"/>
<path d="M943.149 107.563C949.075 107.563 953.806 105.659 957.344 101.854C960.875 98.0517 963.422 92.5842 964.981 85.46C966.546 78.3233 967.325 69.7254 967.325 59.6457C967.325 49.5712 966.545 40.9437 964.981 33.7581C963.423 26.5777 960.875 21.1361 957.344 17.4444C953.806 13.7387 949.131 11.8902 943.305 11.8902C934.263 11.8902 927.863 16.0447 924.12 24.3508C920.373 32.6621 918.505 44.4258 918.505 59.6457C918.505 74.7605 920.374 86.5294 924.12 94.9399C927.863 103.356 934.207 107.563 943.15 107.563H943.149ZM943.149 118.818C930.88 118.818 920.738 116.357 912.735 111.422C904.725 106.493 898.702 99.5787 894.638 90.6853C890.589 81.7876 888.561 71.3843 888.561 59.4917C888.561 47.5939 890.589 37.2469 894.638 28.4513C898.702 19.6631 904.75 12.8352 912.816 7.9564C920.868 3.07096 931.034 0.634521 943.305 0.634521C954.851 0.634521 964.647 3.07096 972.706 7.9564C980.763 12.8352 986.868 19.6883 991.03 28.5379C995.193 37.3764 997.27 47.7479 997.27 59.6465C997.27 71.5516 995.193 81.9231 991.03 90.7594C986.868 99.6039 980.764 106.494 972.706 111.423C964.647 116.358 954.795 118.819 943.149 118.819V118.818Z" fill="white" fill-opacity="0.47"/>
<path d="M1009.59 117.213V107.888H1014.43C1016.61 107.888 1018.4 107.646 1019.81 107.164C1021.21 106.683 1022.28 105.822 1023 104.591C1023.74 103.36 1024.1 101.721 1024.1 99.6876V20.2475C1024.1 18.1139 1023.73 16.3958 1023 15.1095C1022.28 13.8224 1021.34 12.9389 1020.2 12.4546C1019.05 11.9673 1017.75 11.7259 1016.3 11.7259H1009.59V2.40596H1099.28L1100.06 32.6362H1088.05L1087.27 24.5894C1086.75 20.0927 1085.49 17.0394 1083.52 15.4294C1081.55 13.8216 1079.31 13.0122 1076.82 13.0122H1052.33V55.7837H1089.13V65.9197H1052.33V99.3595C1052.33 101.295 1052.64 102.902 1053.26 104.189C1053.89 105.476 1054.9 106.416 1056.31 107.003C1057.71 107.591 1059.46 107.888 1061.53 107.888H1070.11V117.213H1009.59H1009.59Z" fill="white" fill-opacity="0.47"/>
<path d="M1108.48 117.213V107.888H1113.31C1115.49 107.888 1117.29 107.646 1118.69 107.164C1120.1 106.683 1121.17 105.822 1121.89 104.591C1122.61 103.36 1122.99 101.721 1122.99 99.6876V20.2475C1122.99 18.1139 1122.61 16.3958 1121.89 15.1095C1121.16 13.8224 1120.23 12.9389 1119.08 12.4546C1117.94 11.9673 1116.64 11.7259 1115.19 11.7259H1108.47V2.40596H1198.16L1198.94 32.6362H1186.93L1186.15 24.5894C1185.63 20.0927 1184.38 17.0394 1182.41 15.4294C1180.43 13.8216 1178.19 13.0122 1175.7 13.0122H1151.21V55.7837H1188.02V65.9197H1151.21V99.3595C1151.21 101.295 1151.53 102.902 1152.15 104.189C1152.78 105.476 1153.78 106.416 1155.19 107.003C1156.59 107.591 1158.34 107.888 1160.41 107.888H1168.99V117.213H1108.48H1108.48Z" fill="white" fill-opacity="0.47"/>
<path d="M1207.36 117.213V107.888H1214.22C1215.89 107.888 1217.27 107.56 1218.36 106.922C1219.45 106.274 1220.31 105.34 1220.93 104.108C1221.55 102.877 1221.87 101.35 1221.87 99.5261V20.8969C1221.87 18.1132 1221.5 16.0723 1220.77 14.7859C1220.04 13.4944 1219.08 12.6716 1217.89 12.2946C1216.69 11.9229 1215.42 11.7252 1214.07 11.7252H1207.36V2.40526H1297.36L1297.83 32.6355H1285.82L1285.04 24.7552C1284.62 20.6859 1283.63 17.7059 1282.07 15.8249C1280.51 13.9579 1277.81 13.0115 1273.96 13.0115H1250.1V52.0906H1287.07V62.3806H1250.1V106.601H1278.33C1281.96 106.601 1284.7 105.524 1286.52 103.384C1288.33 101.238 1289.5 98.3998 1290.02 94.8622L1291.27 86.9767H1303.13L1302.04 117.212H1207.36L1207.36 117.213Z" fill="white" fill-opacity="0.47"/>
<path d="M1311.23 117.213V107.888H1318.1C1319.76 107.888 1321.14 107.56 1322.23 106.922C1323.32 106.274 1324.18 105.34 1324.8 104.108C1325.43 102.877 1325.74 101.35 1325.74 99.5261V20.8969C1325.74 18.1132 1325.37 16.0723 1324.65 14.7859C1323.92 13.4944 1322.96 12.6716 1321.76 12.2946C1320.56 11.9229 1319.29 11.7252 1317.94 11.7252H1311.23V2.40526H1401.23L1401.7 32.6355H1389.69L1388.91 24.7552C1388.49 20.6859 1387.5 17.7059 1385.95 15.8249C1384.38 13.9579 1381.68 13.0115 1377.84 13.0115H1353.97V52.0906H1390.94V62.3806H1353.97V106.601H1382.21C1385.83 106.601 1388.57 105.524 1390.39 103.384C1392.21 101.238 1393.37 98.3998 1393.9 94.8622L1395.14 86.9767H1407L1405.91 117.212H1311.23V117.213Z" fill="white" fill-opacity="0.47"/>
</svg>
