<svg width="235" height="43" viewBox="0 0 235 43" fill="none" xmlns="http://www.w3.org/2000/svg">
<path d="M21.501 42.6417C18.6467 42.6417 15.878 42.0828 13.2718 40.9805C10.7544 39.9156 8.49324 38.3911 6.55156 36.4496C4.60982 34.5077 3.08548 32.2469 2.0206 29.7294C0.918198 27.1231 0.359375 24.3543 0.359375 21.5001C0.359375 18.6458 0.918198 15.8772 2.0206 13.2709C3.08548 10.7533 4.60987 8.49222 6.55156 6.55054C8.49329 4.6087 10.7544 3.08431 13.2718 2.01938C15.8781 0.917182 18.6468 0.358154 21.501 0.358154C24.3553 0.358154 27.1241 0.917131 29.7303 2.01938C32.2479 3.08426 34.5088 4.60865 36.4505 6.55054C38.3923 8.49222 39.9166 10.7532 40.9815 13.2709C42.0839 15.8772 42.6427 18.6458 42.6427 21.5001C42.6427 24.3543 42.0839 27.1231 40.9815 29.7294C39.9166 32.2469 38.3922 34.5077 36.4505 36.4496C34.5088 38.3911 32.2479 39.9156 29.7303 40.9805C27.124 42.0827 24.3553 42.6417 21.501 42.6417Z" fill="#0C5E43"/>
<path d="M21.5 41.8493C10.2614 41.8493 1.15079 32.7386 1.15079 21.5002C1.15079 10.2617 10.2614 1.15094 21.5 1.15094C32.7386 1.15094 41.8493 10.2617 41.8493 21.5002C41.8493 32.7386 32.7386 41.8493 21.5 41.8493ZM21.5 0C9.62583 0 0 9.62593 0 21.5002C0 33.3742 9.62583 43.0002 21.5 43.0002C33.3742 43.0002 43 33.3742 43 21.5002C43 9.62593 33.3742 0 21.5 0Z" fill="white"/>
<path d="M16.6587 26.9302C16.6587 26.9546 16.6628 26.9707 16.658 26.9836C16.642 27.0268 16.6249 27.0699 16.6044 27.1111C16.545 27.2317 16.5093 27.3602 16.4801 27.4904C16.4638 27.5629 16.4567 27.6372 16.4438 27.7106C16.3989 27.9679 16.4034 28.2279 16.4046 28.4876C16.4051 28.6781 16.4239 28.8675 16.4561 29.0548C16.4744 29.1631 16.4772 29.2754 16.5298 29.3764C16.5465 29.4086 16.5533 29.4462 16.5271 29.479C16.499 29.5134 16.4605 29.5137 16.4212 29.5045C16.3711 29.4926 16.3216 29.4771 16.2711 29.4682C16.1096 29.4397 15.9477 29.4133 15.786 29.3863C15.7478 29.3799 15.7099 29.3725 15.6715 29.3694C15.6029 29.3643 15.5624 29.4086 15.5799 29.4676C15.5836 29.4797 15.5829 29.493 15.5866 29.5055C15.6284 29.6562 15.671 29.8068 15.7127 29.9574C15.7551 30.1106 15.7949 30.2646 15.8393 30.417C15.8828 30.5648 15.9302 30.7112 15.9774 30.8576C16.0637 31.1247 16.1497 31.3923 16.2385 31.6585C16.0426 31.5569 15.8499 31.4497 15.6609 31.3373C15.6083 31.1929 15.5562 31.0482 15.504 30.9037C15.4311 30.7008 15.361 30.4969 15.296 30.2912C15.2006 29.9903 15.108 29.6885 15.0209 29.385C14.9686 29.2025 14.9286 29.0168 14.8846 28.8322C14.8677 28.7618 14.9092 28.7095 14.9815 28.7067C14.999 28.7063 15.0169 28.7113 15.0344 28.7149C15.1501 28.7381 15.2647 28.7714 15.3818 28.7829C15.4998 28.7947 15.6148 28.8169 15.7297 28.8422C15.7549 28.848 15.7809 28.8506 15.8062 28.8498C15.8533 28.8486 15.8775 28.8294 15.8884 28.784C15.8935 28.7618 15.8947 28.7377 15.8916 28.7154C15.8714 28.5707 15.8839 28.4261 15.9074 28.2849C15.96 27.9683 16.0573 27.6656 16.2335 27.3934C16.3189 27.262 16.4057 27.131 16.5151 27.0173C16.5521 26.9787 16.59 26.9405 16.6587 26.9303L16.6587 26.9302Z" fill="white"/>
<path d="M20.9007 32.8404C20.9036 32.868 20.9061 32.8955 20.9091 32.9231C19.9633 32.8752 19.0481 32.7119 18.1767 32.4478C18.1661 32.4017 18.1562 32.3559 18.1465 32.3098C18.1069 32.1167 18.0515 31.9271 18.019 31.732C18.0014 31.626 17.9723 31.5216 17.9523 31.4157C17.9364 31.3327 17.9288 31.2479 17.9137 31.1645C17.882 30.9931 17.843 30.8229 17.8158 30.6507C17.7814 30.4331 17.7539 30.214 17.7265 29.995C17.6957 29.7479 17.6678 29.5005 17.6394 29.2531C17.6306 29.1765 17.6293 29.0985 17.615 29.0231C17.5964 28.9241 17.6056 28.8313 17.6378 28.7354C17.7177 28.4971 17.7911 28.2566 17.8668 28.0167C17.8785 27.98 17.8853 27.9418 17.8972 27.9053C17.9203 27.8346 17.9604 27.8162 18.0261 27.8467C18.0655 27.8653 18.103 27.8885 18.1414 27.9092C18.2003 27.9405 18.2574 27.9769 18.3189 28.0018C18.4809 28.067 18.6444 28.1279 18.8084 28.1881C18.8418 28.2002 18.8786 28.205 18.9143 28.2066C18.9319 28.2073 18.9635 28.1963 18.9656 28.1855C18.9697 28.1672 18.9611 28.1398 18.9477 28.1259C18.9212 28.0983 18.8878 28.0777 18.8571 28.0541C18.6656 27.9073 18.5073 27.7285 18.3679 27.5329C18.2859 27.4181 18.2101 27.2986 18.1352 27.1788C18.0986 27.1212 18.0827 27.0585 18.0994 26.9874C18.1586 26.7355 18.1717 26.4792 18.1679 26.2213C18.1644 25.9927 18.1541 25.7639 18.218 25.5395C18.2476 25.4367 18.2903 25.3415 18.3603 25.2604C18.3841 25.2333 18.4135 25.2078 18.4545 25.2256C18.49 25.2411 18.5004 25.274 18.4966 25.3093C18.4875 25.3897 18.5083 25.4676 18.5123 25.5464C18.5198 25.6915 18.5476 25.8321 18.5854 25.9703C18.7311 26.5037 19.0224 26.9435 19.4547 27.2866C19.6629 27.4518 19.8928 27.5834 20.1422 27.6787C20.2237 27.7098 20.2453 27.7605 20.1981 27.8353C20.1145 27.9677 20.0265 28.0976 19.9367 28.226C19.8642 28.3302 19.7686 28.4131 19.6747 28.4976C19.606 28.5593 19.6003 28.6169 19.6473 28.6966C19.6591 28.7164 19.6717 28.736 19.6864 28.7541C19.8366 28.9411 20.0039 29.1118 20.1877 29.2657C20.3356 29.3895 20.4861 29.5104 20.6364 29.631C20.6992 29.6811 20.7296 29.7404 20.7285 29.8234C20.7269 29.9748 20.7346 30.1265 20.7387 30.2782C20.7422 30.4044 20.7434 30.5306 20.7508 30.6563C20.7616 30.8489 20.7782 31.0411 20.7895 31.2334C20.7995 31.4003 20.8047 31.5675 20.8139 31.734C20.8207 31.852 20.8308 31.9701 20.8406 32.0878C20.8517 32.2182 20.8653 32.3484 20.8759 32.4788C20.8855 32.5995 20.889 32.7203 20.9007 32.8407L20.9007 32.8404Z" fill="white"/>
<path d="M21.6514 24.0431C21.7227 24.1597 21.7276 24.287 21.6515 24.4082C21.5495 24.5708 21.4019 24.6554 21.2112 24.6849C20.9198 24.7302 20.6563 24.6577 20.4053 24.5199C20.0226 24.3098 19.729 24.0046 19.4837 23.6483C19.3328 23.4297 19.2013 23.2003 19.1015 22.9538C19.0321 22.7824 18.9596 22.6115 18.9153 22.432C18.8636 22.223 18.8144 22.0129 18.7779 21.801C18.7491 21.6344 18.7379 21.4645 18.7248 21.2957C18.7146 21.1646 18.723 21.0326 18.7545 20.9049C18.7961 20.7371 18.9027 20.6267 19.0711 20.5791C19.2093 20.5399 19.3464 20.5536 19.4818 20.5926C19.6741 20.6474 19.8637 20.7129 20.0576 20.7611C20.3182 20.8259 20.5585 20.788 20.753 20.5825C20.797 20.5359 20.8411 20.4886 20.8881 20.4452C21.0204 20.3229 21.1721 20.2514 21.3576 20.2795C21.3878 20.2841 21.4178 20.2921 21.4463 20.3026C21.5723 20.3487 21.5844 20.374 21.5819 20.5072C21.5782 20.7106 21.5809 20.9136 21.5809 21.1169H21.5765C21.5765 21.3303 21.5741 21.5439 21.5776 21.7573C21.5799 21.8779 21.5183 21.9457 21.3928 21.9597C21.2735 21.9727 21.1581 21.9586 21.0533 21.8875C21.0008 21.8518 20.9403 21.8256 20.8801 21.8048C20.7875 21.773 20.7152 21.8245 20.709 21.9219C20.7065 21.9522 20.7084 21.9838 20.7143 22.0137C20.7254 22.0698 20.7607 22.0983 20.818 22.1127C20.8922 22.1311 20.9651 22.1575 21.0351 22.188C21.0659 22.2015 21.0936 22.2301 21.1144 22.258C21.1465 22.302 21.1277 22.338 21.0745 22.3439C21.0593 22.3454 21.0436 22.3457 21.0282 22.3439C20.8846 22.3264 20.7681 22.391 20.6608 22.473C20.5915 22.5256 20.5331 22.5922 20.4677 22.6499C20.4099 22.701 20.3518 22.7524 20.2896 22.7973C20.1879 22.8706 20.1273 22.8796 19.9884 22.7829C19.9673 22.7683 19.9506 22.7474 19.9297 22.7328C19.8799 22.6985 19.8353 22.7128 19.814 22.77C19.7916 22.829 19.7982 22.8877 19.8262 22.942C19.8851 23.056 19.9763 23.1271 20.1042 23.1536C20.2478 23.1835 20.3885 23.1718 20.5324 23.1489C20.7398 23.1163 20.9351 23.0486 21.1292 22.9731C21.1671 22.9582 21.2021 22.9353 21.2373 22.9145C21.2908 22.8824 21.344 22.8828 21.3989 22.9103C21.4653 22.9439 21.5331 22.975 21.5994 23.0094C21.6871 23.0547 21.6949 23.1157 21.6245 23.1861C21.5093 23.3009 21.3675 23.3554 21.208 23.3599C21.0797 23.3636 20.9506 23.3636 20.8255 23.3257C20.818 23.3236 20.8103 23.3227 20.8027 23.322C20.7128 23.3121 20.6765 23.3601 20.7164 23.4438C20.7598 23.5342 20.8308 23.6014 20.9185 23.6501C20.9936 23.6917 21.0762 23.7093 21.1594 23.7273C21.3622 23.771 21.5402 23.8613 21.6514 24.043L21.6514 24.0431Z" fill="white"/>
<path d="M22.3295 20.998C22.3145 20.9543 22.2956 20.9118 22.2817 20.8678C22.2555 20.7836 22.292 20.7331 22.3811 20.7298C22.4171 20.7286 22.4528 20.7295 22.4888 20.7295C22.6548 20.729 22.8139 20.6894 22.9747 20.6547C23.157 20.6152 23.338 20.5622 23.5295 20.5788C23.6369 20.5882 23.693 20.6281 23.7046 20.735C23.7217 20.8884 23.7246 21.0415 23.6937 21.1955C23.6683 21.3238 23.6523 21.4536 23.5988 21.5747C23.5257 21.7399 23.4457 21.9013 23.325 22.0372C23.2087 22.1681 23.0827 22.1739 22.9464 22.0617C22.8481 21.9808 22.7707 21.8804 22.7035 21.7742C22.5487 21.5303 22.4229 21.2719 22.3296 20.998L22.3295 20.998Z" fill="white"/>
<path d="M24.9611 28.599C25.0053 28.7429 25.0758 28.8824 25.0235 29.04C25.0211 29.0471 25.0232 29.0555 25.0224 29.0631C24.9998 29.2959 24.9802 29.529 24.9534 29.761C24.9309 29.9548 24.9009 30.1477 24.8724 30.3405C24.8372 30.579 24.8033 30.8176 24.763 31.0553C24.734 31.2272 24.6966 31.3975 24.6613 31.5681C24.6216 31.7617 24.5819 31.9551 24.5391 32.1478C24.509 32.284 24.4764 32.4197 24.4435 32.5555C23.576 32.7861 22.6679 32.917 21.7324 32.9355C21.7385 32.8807 21.7446 32.826 21.7488 32.7712C21.766 32.561 21.781 32.3509 21.7978 32.1409C21.8089 32.0077 21.825 31.8749 21.8328 31.7413C21.8557 31.3616 21.8786 30.9819 21.8961 30.6016C21.9083 30.3398 21.9147 30.0772 21.9169 29.815C21.9176 29.737 21.9443 29.6817 22.0014 29.6357C22.0235 29.6176 22.046 29.6005 22.0685 29.5832C22.3384 29.377 22.5989 29.159 22.8291 28.9083C22.8946 28.8369 22.9512 28.756 23.0027 28.6736C23.0492 28.5985 23.0379 28.5459 22.9683 28.4909C22.7416 28.3111 22.5935 28.0697 22.4421 27.8305C22.4051 27.7724 22.4228 27.722 22.4843 27.6895C22.5047 27.6785 22.5264 27.6705 22.5477 27.6613C22.8192 27.5453 23.0695 27.3956 23.2928 27.2007C23.6508 26.8882 23.9004 26.5059 24.0373 26.0509C24.0639 25.9626 24.0968 25.8735 24.1059 25.7831C24.1215 25.6223 24.1617 25.4638 24.1519 25.3007C24.1517 25.2931 24.1526 25.2849 24.1545 25.2777C24.1694 25.2183 24.2177 25.1993 24.2646 25.2377C24.2879 25.257 24.3074 25.2823 24.3246 25.3073C24.3923 25.4072 24.4249 25.5206 24.4487 25.637C24.4824 25.7993 24.4821 25.964 24.4761 26.1286C24.4656 26.4047 24.4795 26.6796 24.5387 26.9493C24.5607 27.0497 24.5397 27.1285 24.4927 27.212C24.4052 27.3672 24.3016 27.5112 24.1901 27.6491C24.0721 27.7953 23.9468 27.9353 23.7948 28.0483C23.7578 28.0758 23.7218 28.1055 23.6887 28.1377C23.6781 28.148 23.6705 28.1723 23.6752 28.1847C23.6802 28.1973 23.7017 28.2093 23.7172 28.2104C23.7392 28.2128 23.7632 28.208 23.7847 28.2015C23.8609 28.178 23.9361 28.1524 24.0118 28.1274C24.2075 28.0627 24.3997 27.9884 24.5711 27.872C24.6569 27.8136 24.7316 27.7999 24.7632 27.9436C24.7636 27.946 24.7642 27.9486 24.7649 27.9509C24.8301 28.1671 24.8945 28.3835 24.9609 28.5991L24.9611 28.599Z" fill="white"/>
<path d="M27.7618 28.8385C27.7245 28.9982 27.6903 29.1592 27.6449 29.3167C27.5564 29.6224 27.4633 29.927 27.3678 30.2304C27.292 30.4704 27.2112 30.7087 27.1299 30.9469C27.0784 31.0976 27.0241 31.2474 26.9671 31.3959C26.9422 31.4603 26.9175 31.5247 26.8928 31.5891C26.7102 31.687 26.5246 31.7801 26.3364 31.8682C26.4087 31.6629 26.475 31.4559 26.5432 31.2488C26.5952 31.0903 26.6479 30.9318 26.6953 30.7716C26.7962 30.4296 26.8934 30.0866 26.9922 29.7438C27.0176 29.6547 27.0458 29.5666 27.0659 29.4765C27.0841 29.3956 27.0434 29.3547 26.964 29.372C26.7182 29.4246 26.4657 29.4411 26.2217 29.5055C26.1363 29.5281 26.087 29.476 26.116 29.3938C26.1526 29.2911 26.1724 29.1866 26.1844 29.079C26.1982 28.9512 26.2301 28.8245 26.2326 28.6968C26.2387 28.3939 26.2573 28.09 26.2137 27.7877C26.2076 27.7446 26.2009 27.7015 26.1923 27.6588C26.1693 27.5457 26.1522 27.4311 26.1196 27.3207C26.0867 27.2105 26.0374 27.1051 25.9966 26.9968C25.9884 26.9751 25.9675 26.9517 26.0001 26.9209C26.0198 26.9331 26.0415 26.9449 26.0614 26.9585C26.1544 27.0229 26.2133 27.1174 26.2821 27.2043C26.4423 27.4062 26.5586 27.6318 26.6404 27.8742C26.6956 28.0372 26.7347 28.2041 26.75 28.377C26.7606 28.498 26.7722 28.6172 26.7572 28.7384C26.7474 28.8168 26.784 28.8534 26.8638 28.85C26.8842 28.849 26.9044 28.844 26.9244 28.8397C26.9696 28.83 27.0143 28.8179 27.0596 28.8102C27.2518 28.7768 27.4444 28.746 27.6366 28.7116C27.7286 28.6952 27.7835 28.7471 27.762 28.8386L27.7618 28.8385Z" fill="white"/>
<path d="M25.0962 18.2966C25.0533 18.3197 24.9978 18.2419 25.0236 18.2059C25.576 17.4444 25.9069 16.7324 25.9374 15.7815C25.943 15.6101 25.9764 15.3996 25.9438 15.2322C25.9159 15.0895 25.8493 14.9417 25.7451 14.8372C25.6436 14.7356 25.714 14.8037 25.6597 14.795C25.3668 14.7481 25.1053 14.9793 24.8468 15.1789C24.8426 15.23 24.839 15.2812 24.8349 15.3323C24.8265 15.4371 24.8175 15.5421 24.8111 15.6472C24.7964 15.8961 24.7838 16.145 24.7697 16.3941C24.7582 16.594 24.7427 16.7941 24.7338 16.9942C24.7219 17.2586 24.7139 17.5233 24.706 17.788C24.701 17.9578 24.6992 18.1275 24.6952 18.2971C24.6934 18.3895 24.6552 18.4262 24.5607 18.426C24.3499 18.4252 24.1391 18.4226 23.9286 18.4223C23.0283 18.4216 22.128 18.4213 21.228 18.4213C21.1917 18.4213 21.1558 18.4266 21.1199 18.4256C21.0434 18.4222 21.0069 18.3866 21.0058 18.3093C21.004 18.1987 21.0064 18.0883 21.0064 17.9775V15.6318H21.0081V13.1087C21.0081 13.0623 21.0051 13.016 21.0051 12.9699C21.0054 12.8783 21.0438 12.8388 21.1366 12.8388C21.291 12.8388 21.4453 12.8389 21.5996 12.8421C21.8799 12.8472 22.1604 12.8512 22.4401 12.8615C22.6044 12.8676 22.7682 12.8843 22.9321 12.8976C23.1088 12.9123 23.2854 12.9283 23.4621 12.9448C23.5257 12.9509 23.5896 12.9577 23.6526 12.9689C23.8368 13.0024 24.0234 13.0279 24.2036 13.0761C24.4089 13.1309 24.6147 13.1931 24.7977 13.3072C24.9555 13.4056 25.0503 13.5433 25.0488 13.7387C25.0481 13.8499 25.0326 13.9583 25.0121 14.067C25.0118 14.0675 25.0118 14.0678 25.0118 14.0679C25.6419 13.9695 26.4421 14.4199 26.5692 15.2275C26.7337 16.271 26.0182 17.7995 25.0963 18.2965L25.0962 18.2966ZM20.7304 18.3163C20.7292 18.3845 20.7016 18.4183 20.6346 18.4221C20.5449 18.4274 20.4548 18.4289 20.3651 18.425C20.298 18.4221 20.2631 18.3845 20.2567 18.3173C20.2518 18.2661 20.2523 18.2146 20.2529 18.163C20.2536 18.0319 20.2571 17.9009 20.2571 17.7695C20.2578 16.3191 20.2578 14.8687 20.2575 13.4183C20.2575 13.2819 20.2545 13.1457 20.2536 13.0093C20.2533 12.994 20.2532 12.9785 20.2549 12.9632C20.2621 12.8958 20.29 12.8667 20.3561 12.8576C20.3765 12.8549 20.3971 12.8553 20.4178 12.8546C20.4766 12.8526 20.5358 12.8526 20.5945 12.8485C20.6875 12.8424 20.731 12.8777 20.7323 12.97C20.7333 13.0495 20.7292 13.1293 20.7292 13.2088C20.7289 14.0216 20.7289 14.8344 20.7289 15.647V18.1234C20.7289 18.1879 20.7318 18.2522 20.7304 18.3163ZM19.4198 18.4231C19.3663 18.4271 19.312 18.4225 19.2581 18.4225C19.0857 18.4223 18.9132 18.4225 18.7409 18.4225V18.4273C18.5298 18.4273 18.3192 18.4275 18.1083 18.427C18.0826 18.4267 18.0567 18.4246 18.0318 18.419C17.9907 18.4095 17.9635 18.3827 17.9572 18.3401C17.9528 18.3098 17.9505 18.279 17.9498 18.2482C17.9456 17.9988 17.9449 17.7491 17.9373 17.4997C17.9305 17.2837 17.915 17.0683 17.9051 16.8524C17.8953 16.6422 17.8884 16.4313 17.8783 16.221C17.871 16.0718 17.8619 15.9232 17.8508 15.7742C17.8331 15.5384 17.8156 15.3024 17.7932 15.067C17.78 14.9317 17.7601 14.7968 17.7386 14.6626C17.6941 14.3868 17.6426 14.1116 17.6016 13.8354C17.5646 13.5868 17.6738 13.407 17.888 13.2867C18.0412 13.2004 18.2073 13.1454 18.375 13.0959C18.4759 13.0657 18.5776 13.0376 18.6811 13.019C18.7794 13.0015 18.8806 12.9962 18.9783 13.027C19.1387 13.0774 19.2363 13.1901 19.287 13.346C19.3286 13.4735 19.3462 13.6044 19.3512 13.7395C19.3671 14.1635 19.3932 14.5872 19.4105 15.011C19.4309 15.5198 19.4468 16.0289 19.4636 16.5377C19.4752 16.8872 19.4838 17.2368 19.4961 17.5862C19.5043 17.8225 19.5158 18.059 19.5273 18.2951C19.531 18.3767 19.5016 18.417 19.4198 18.4231ZM21.5006 10.062C15.1834 10.062 10.0625 15.1829 10.0625 21.4999C10.0625 23.9997 10.8645 26.312 12.2252 28.1938C12.3567 28.0231 12.5028 27.8644 12.6638 27.7176C13.0174 27.3955 13.501 27.1739 13.9371 26.9856C14.3861 26.7918 14.8531 26.6414 15.3278 26.5245C15.5493 26.4699 15.7721 26.4204 15.9953 26.3734C16.1406 26.343 16.288 26.3215 16.4344 26.2954C16.4572 26.2915 16.4798 26.2859 16.5018 26.2786C16.5565 26.2604 16.5828 26.2233 16.5733 26.1671C16.5533 26.0483 16.5289 25.9301 16.5076 25.8115C16.4897 25.713 16.4739 25.614 16.4564 25.5156C16.4284 25.3564 16.4003 25.1975 16.3707 25.0383C16.3528 24.9417 16.3677 24.9103 16.461 24.8724C16.4918 24.86 16.525 24.8538 16.5569 24.8443C16.6774 24.8084 16.7978 24.772 16.918 24.7363C17.0779 24.6888 17.2382 24.643 17.3975 24.5944C17.5105 24.56 17.6222 24.5216 17.7351 24.4867C17.9946 24.4064 18.2545 24.3264 18.5149 24.2478C18.6105 24.219 18.7076 24.1947 18.8039 24.1679C18.8186 24.1639 18.833 24.1578 18.847 24.1513C18.907 24.1223 18.9222 24.0776 18.8891 24.0187C18.8728 23.9896 18.8494 23.9649 18.8318 23.9367C18.6771 23.6862 18.5534 23.4208 18.4565 23.1432C18.4075 23.0025 18.3583 22.8616 18.3203 22.718C18.2688 22.5249 18.2221 22.3299 18.1838 22.1336C18.158 22.0031 18.1498 21.8691 18.134 21.7364C18.1319 21.7186 18.1303 21.7006 18.1289 21.6827C18.1211 21.6001 18.0869 21.536 18.0225 21.4783C17.792 21.2713 17.676 21.0051 17.6402 20.7008C17.6373 20.6778 17.6336 20.6547 17.6331 20.6318C17.6316 20.5465 17.582 20.5022 17.5064 20.4775C17.3651 20.4314 17.2224 20.3884 17.0832 20.3361C16.9269 20.2776 16.7714 20.2159 16.6205 20.1452C16.4464 20.0632 16.2757 19.9731 16.1071 19.88C15.9444 19.7906 15.7912 19.6857 15.6696 19.5429C15.6255 19.4904 15.588 19.4307 15.5557 19.3698C15.5231 19.3084 15.5306 19.2447 15.5765 19.1899C15.6524 19.099 15.7521 19.0508 15.8666 19.0275C16.1513 18.9702 16.4393 18.9769 16.727 18.9859C16.8375 18.9891 16.9474 19.0024 17.0574 19.0141C17.2207 19.0314 17.3844 19.0481 17.5471 19.0705C17.7097 19.093 17.8716 19.1223 18.0336 19.1484C18.1325 19.1644 18.2315 19.1783 18.3301 19.196C18.5145 19.2291 18.6983 19.2653 18.8826 19.298C18.9457 19.3091 19.0099 19.3136 19.0736 19.3209C19.26 19.3425 19.4458 19.3687 19.6324 19.3842C19.8758 19.4044 20.1201 19.4136 20.3639 19.4317C20.7774 19.462 21.1915 19.456 21.6056 19.4532C21.994 19.4506 22.382 19.4365 22.7691 19.3983C22.9047 19.385 23.0414 19.3836 23.1763 19.366C23.4257 19.3336 23.6775 19.3205 23.9243 19.2664C24.0242 19.2443 24.1271 19.2348 24.2282 19.2178C24.5266 19.1681 24.8241 19.1113 25.1238 19.0687C25.3727 19.0331 25.6236 19.0029 25.8746 18.9892C26.131 18.9757 26.3891 18.9646 26.6448 19.0068C26.7759 19.0284 26.9103 19.0434 27.0192 19.1336C27.1086 19.2075 27.1349 19.298 27.0829 19.4007C27.0567 19.4526 27.0206 19.5022 26.9795 19.5435C26.9143 19.6085 26.8439 19.6696 26.7709 19.7265C26.5713 19.8826 26.3495 20.0025 26.1186 20.1048C25.9638 20.1737 25.8082 20.2414 25.6502 20.3031C25.5116 20.357 25.3696 20.4014 25.2293 20.4507C25.188 20.4651 25.1477 20.4818 25.1072 20.4979C25.042 20.5233 25.011 20.5726 25.0104 20.6411C25.0086 20.8366 24.9426 21.0132 24.8569 21.1852C24.8021 21.295 24.7295 21.3923 24.6343 21.4681C24.5495 21.5356 24.5221 21.6224 24.5137 21.7236C24.4958 21.9387 24.4665 22.152 24.415 22.3622C24.3846 22.4864 24.361 22.6131 24.3246 22.7358C24.2143 23.1056 24.084 23.4682 23.8962 23.8073C23.8627 23.8678 23.8221 23.9244 23.7847 23.9824C23.7747 23.9976 23.7627 24.0113 23.7542 24.0272C23.7214 24.0892 23.7384 24.1312 23.8045 24.1514C24.0523 24.2273 24.3004 24.3032 24.5481 24.3784C24.8671 24.4755 25.1865 24.5723 25.5055 24.6689C25.7119 24.7311 25.9184 24.7922 26.125 24.8544C26.1544 24.8636 26.1839 24.873 26.2117 24.8859C26.275 24.9154 26.2926 24.9479 26.2808 25.0151C26.2503 25.1867 26.2181 25.3583 26.1879 25.5301C26.1605 25.6866 26.1355 25.8438 26.108 26.0002C26.0992 26.0509 26.0857 26.1006 26.0757 26.151C26.0631 26.2133 26.0854 26.2591 26.1467 26.2769C26.2078 26.2944 26.2724 26.3003 26.3351 26.3132C26.5283 26.3529 26.7219 26.393 26.915 26.4345C27.0577 26.4654 27.2008 26.4953 27.3423 26.531C27.7034 26.6223 28.06 26.7267 28.4088 26.8588C28.8934 27.0427 29.3368 27.2939 29.7637 27.5884C30.0347 27.7754 30.3207 27.9664 30.578 28.1804C30.6212 28.2164 30.6637 28.2533 30.7053 28.291C32.1089 26.3919 32.9385 24.0429 32.9385 21.5C32.9385 15.183 27.8176 10.0621 21.5006 10.0621V10.062Z" fill="white"/>
<path d="M35.0479 13.5561C35.1919 13.6326 35.3487 13.7 35.5182 13.7586C35.6875 13.8173 35.862 13.8384 36.0413 13.8223C36.2204 13.8057 36.3967 13.7466 36.5696 13.6442C36.7961 13.5103 36.9508 13.3063 37.0346 13.032C37.118 12.7578 37.0874 12.4986 36.9428 12.2547C36.809 12.0282 36.6204 11.8668 36.3781 11.7708L34.1211 13.1067C34.2464 13.1465 34.3961 13.2118 34.5703 13.3036C34.7444 13.3954 34.9038 13.4796 35.0478 13.5561H35.0479Z" fill="white"/>
<path d="M30.8993 34.5313C30.6425 34.2291 30.3768 34.0304 30.1019 33.9349C29.8275 33.8394 29.5894 33.8582 29.3885 33.9905C29.1777 34.1291 29.089 34.33 29.1219 34.5934C29.1545 34.8567 29.2955 35.1335 29.5444 35.4237C29.7977 35.7316 30.0625 35.9337 30.3381 36.03C30.6134 36.1269 30.8528 36.1079 31.0564 35.9739C31.2668 35.8353 31.3559 35.6333 31.3234 35.3682C31.2912 35.103 31.1497 34.824 30.8994 34.5313L30.8993 34.5313Z" fill="white"/>
<path d="M38.2148 26.7321C38.2659 26.5229 38.2295 26.4034 38.1057 26.373L35.7128 25.7876C35.5891 25.7573 35.5014 25.8466 35.4503 26.0557L35.4092 26.046L35.9784 23.7186C36.1243 23.9206 36.2781 24.0369 36.4398 24.0676C36.4161 24.1638 36.3752 24.2481 36.3168 24.3197C36.2586 24.3913 36.1995 24.4474 36.1398 24.4885C36.0804 24.5293 36.0192 24.5952 35.956 24.6862C35.8928 24.7772 35.8459 24.8858 35.815 25.0123L35.7816 25.1487L37.0855 25.4674L36.9102 25.2367C36.7795 25.0677 36.7393 24.88 36.7898 24.6739L36.8878 24.2735C36.9791 24.4972 37.1115 24.6517 37.2857 24.7382C37.2359 24.787 37.1956 24.8735 37.1655 24.9973C37.1203 25.1816 37.1473 25.3512 37.2464 25.5069L38.3396 25.7745L38.5375 24.9658C38.5758 24.8088 38.5582 24.6794 38.484 24.5767C38.41 24.4739 38.2868 24.3695 38.1147 24.2633L38.1583 24.191L38.7371 24.5423L38.7868 24.5721L38.2559 26.7422L38.2148 26.7322V26.7321ZM36.9777 29.8359L36.9387 29.8188C37.0249 29.6219 37.0099 29.4976 36.8933 29.4463L34.6368 28.4578C34.5202 28.4065 34.4186 28.4797 34.3322 28.6766L34.2932 28.6598L35.2547 26.4655C35.364 26.6896 35.4951 26.8305 35.6492 26.8888C35.6091 26.9795 35.5545 27.0553 35.4846 27.1157C35.4148 27.1763 35.347 27.2217 35.2813 27.2516C35.2156 27.2817 35.144 27.336 35.0661 27.4147C34.9882 27.4936 34.9233 27.5923 34.871 27.7117L34.8148 27.8402L36.044 28.3789L35.911 28.1213C35.8116 27.9322 35.8043 27.7404 35.8896 27.5461L36.0549 27.1687C36.1062 27.4046 36.2104 27.5798 36.3668 27.695C36.3094 27.7345 36.2552 27.8126 36.2037 27.9295C36.1275 28.1032 36.125 28.2753 36.1957 28.4452L37.2266 28.897L37.5606 28.1347C37.6256 27.9868 37.6304 27.8559 37.5751 27.7422C37.52 27.6284 37.4165 27.5043 37.2653 27.3697L37.321 27.306L37.8305 27.752L37.8745 27.7898L36.9777 29.836V29.8359ZM35.0107 32.7034L34.9766 32.6784C35.1032 32.5048 35.1154 32.3802 35.0125 32.305L33.0225 30.8529C32.9198 30.7778 32.8049 30.8269 32.678 31.0011L32.6435 30.976L34.0558 29.0409C34.1141 29.283 34.2117 29.4491 34.3495 29.5392C34.2911 29.619 34.2213 29.6812 34.1401 29.7252C34.0587 29.7694 33.9828 29.7991 33.9123 29.814C33.8418 29.8292 33.7598 29.8669 33.6669 29.9271C33.5739 29.9872 33.4891 30.0695 33.4122 30.175L33.3298 30.288L34.4138 31.0794L34.3395 30.7994C34.2832 30.5932 34.3177 30.4043 34.4428 30.233L34.6854 29.9C34.6848 30.1415 34.7484 30.3351 34.8765 30.4813C34.8118 30.5075 34.742 30.5722 34.6667 30.6752C34.5549 30.8284 34.5152 30.9957 34.5477 31.177L35.3882 31.7908C35.4909 31.8657 35.606 31.8165 35.733 31.6424L35.7669 31.6674L35.0108 32.7035L35.0107 32.7034ZM32.8172 34.9324L32.7875 34.9021C32.9413 34.7519 32.974 34.631 32.8847 34.5401L31.1638 32.7774C31.0748 32.6863 30.9531 32.7159 30.7993 32.8662L30.7696 32.8357L32.4836 31.162C32.5008 31.4105 32.5697 31.5906 32.6903 31.7021C32.6192 31.7717 32.5405 31.8212 32.4529 31.8509C32.3651 31.8811 32.2855 31.8977 32.2134 31.9008C32.1413 31.9038 32.0544 31.9273 31.9528 31.9713C31.8511 32.015 31.7535 32.0825 31.6604 32.1736L31.5601 32.2715L32.4978 33.2318L32.4714 32.943C32.4498 32.7306 32.5151 32.5501 32.6671 32.4019L32.9618 32.1139C32.9209 32.3518 32.9515 32.5534 33.0536 32.7188C32.9855 32.7341 32.9057 32.7859 32.8145 32.8752C32.6789 33.0076 32.6119 33.1659 32.6136 33.3503L33.3404 34.0948C33.4298 34.186 33.5512 34.1565 33.705 34.006L33.735 34.0364L32.8171 34.9324H32.8172ZM31.6915 35.3223C31.6131 35.7028 31.3943 36.0114 31.0348 36.2484C30.6612 36.4943 30.289 36.5716 29.9186 36.4803C29.5478 36.3887 29.2429 36.1535 29.004 35.7752C28.7557 35.3933 28.6709 35.0124 28.7499 34.6331C28.8289 34.2539 29.0471 33.9464 29.404 33.7112C29.7778 33.4653 30.1494 33.3874 30.5194 33.4776C30.8889 33.5678 31.1939 33.8006 31.4339 34.1745C31.6837 34.5592 31.7696 34.942 31.6914 35.3223H31.6915ZM28.5529 37.4843C28.4466 37.5203 28.3698 37.5572 28.3224 37.5948C28.2746 37.6327 28.2086 37.6801 28.1239 37.7365C28.0395 37.7929 27.944 37.8412 27.8384 37.8816C27.5128 38.0054 27.1969 37.9941 26.8911 37.8469C26.5849 37.6997 26.3494 37.4093 26.1841 36.9754C26.1186 36.8033 26.0797 36.6234 26.0675 36.4356C26.0548 36.248 26.0704 36.062 26.1138 35.8771C26.157 35.6924 26.2479 35.5216 26.3862 35.3644C26.525 35.2069 26.7028 35.0871 26.9197 35.0044C27.0282 34.9633 27.1475 34.9305 27.2779 34.9065C27.4082 34.8827 27.5047 34.8618 27.5678 34.8439C27.6307 34.8261 27.7441 34.7662 27.9083 34.6643C27.8674 34.7795 27.8388 34.8671 27.8217 34.9267C27.8051 34.9859 27.7933 35.0581 27.7859 35.1424C27.7787 35.2271 27.7877 35.2979 27.8124 35.3553C27.7398 35.3798 27.6656 35.3816 27.5894 35.3605C27.5133 35.3395 27.4461 35.3121 27.3877 35.2782C27.3294 35.2445 27.2572 35.2205 27.1715 35.2061C27.0858 35.1916 26.9981 35.2018 26.9081 35.2362C26.7175 35.3084 26.6089 35.4794 26.5827 35.7482C26.5566 36.0177 26.6071 36.3188 26.7339 36.6521C26.8578 36.9775 27.0414 37.2425 27.2843 37.4472C27.5272 37.6514 27.7362 37.7202 27.9108 37.654C27.9716 37.6308 28.0277 37.5904 28.0785 37.533C28.1293 37.4758 28.1741 37.4118 28.2121 37.341C28.2504 37.2706 28.2936 37.199 28.3416 37.1262C28.3895 37.0533 28.4535 36.9828 28.5336 36.9144C28.6137 36.8461 28.7064 36.7917 28.8125 36.7514C28.8288 36.8026 28.8338 36.8636 28.8275 36.9343C28.8209 37.005 28.8122 37.0651 28.8009 37.1148C28.7895 37.1646 28.7949 37.2169 28.8178 37.2721C28.8399 37.3273 28.8857 37.3735 28.9545 37.4108C28.793 37.4238 28.659 37.4484 28.5531 37.4842L28.5529 37.4843ZM24.8503 39.0325L24.6335 39.08L24.7825 35.5179L24.9996 35.4703L24.8503 39.0325ZM22.3623 38.9884L22.3606 38.9462C22.5673 38.9439 22.6458 38.8829 22.5958 38.763L22.4414 38.3862L22.277 38.2011C22.2026 38.1134 22.1347 38.0514 22.0722 38.0156C22.0099 37.9796 21.9305 37.9637 21.8346 37.9672C21.6505 37.9743 21.5296 37.9974 21.4715 38.0364C21.4513 37.9493 21.4022 37.8578 21.3251 37.7615L20.9833 38.8287C20.9605 38.9004 20.9636 38.9478 20.9928 38.9705C21.022 38.9937 21.0691 39.0037 21.1342 39.0013L21.136 39.0438L20.4185 39.0711L20.4168 39.0288C20.6435 39.0201 20.7754 38.9555 20.8133 38.8352L21.2011 37.6342C21.166 37.6016 21.1309 37.5748 21.0959 37.5534L21.232 37.5481L21.6082 36.3818L21.5661 36.2772C21.6663 36.2339 21.7551 36.1115 21.8324 35.9101L22.0574 35.9014L23.2326 38.743C23.2796 38.8599 23.3837 38.9156 23.5451 38.9095L23.5466 38.9521L22.3622 38.9884H22.3623ZM19.9321 36.5661C19.8342 36.5501 19.7474 36.5155 19.6716 36.4627C19.5955 36.4099 19.5351 36.3551 19.4899 36.2991C19.4446 36.2427 19.3747 36.1866 19.2791 36.1304C19.1835 36.0743 19.0714 36.0356 18.9431 36.0144L18.8048 35.9915L18.5848 37.3155L18.8021 37.1233C18.9606 36.9802 19.1449 36.9261 19.3542 36.9611L19.7608 37.0285C19.5447 37.1362 19.4002 37.2803 19.327 37.4603C19.2746 37.4143 19.1852 37.3807 19.0599 37.36C18.8726 37.3288 18.7051 37.3686 18.5578 37.4791L18.3732 38.5892L19.1943 38.7256C19.3538 38.752 19.4816 38.7247 19.5785 38.643C19.6752 38.5616 19.77 38.4308 19.863 38.2512L19.9386 38.2895L19.6318 38.893L19.606 38.9446L17.4018 38.5786L17.4088 38.5365C17.621 38.5719 17.7378 38.5267 17.7585 38.4008L18.1623 35.9706C18.1832 35.8449 18.0875 35.7646 17.8753 35.7293L17.8821 35.6874L20.2453 36.0798C20.0552 36.2406 19.9505 36.4026 19.9321 36.566V36.5661ZM17.1965 35.6082C17.1569 35.6491 17.1274 35.6914 17.1091 35.736C17.0905 35.7807 17.0712 35.8339 17.0505 35.8956C16.9712 35.8653 16.8539 35.7678 16.6987 35.6027C16.5434 35.4375 16.4037 35.3312 16.2791 35.2838L15.3722 37.6651C15.3268 37.7842 15.4048 37.8821 15.6057 37.9587L15.5905 37.9986L14.4317 37.5571L14.4469 37.5172C14.6479 37.5938 14.7712 37.5725 14.8164 37.4535L15.7235 35.0719C15.5993 35.0245 15.4239 35.0109 15.1983 35.0309C14.9725 35.0511 14.8201 35.0461 14.7405 35.0157C14.7663 34.9558 14.7871 34.9032 14.803 34.8577C14.8188 34.8123 14.8253 34.7609 14.823 34.704C14.8201 34.6468 14.8058 34.5816 14.7792 34.5079C14.8164 34.522 14.874 34.5516 14.9524 34.5966C15.0308 34.6417 15.0873 34.6706 15.1216 34.6835L16.9871 35.3942C17.0214 35.4072 17.0827 35.423 17.1712 35.4417C17.2597 35.4602 17.3223 35.4764 17.3594 35.4906C17.2905 35.5278 17.2365 35.5671 17.1964 35.6081L17.1965 35.6082ZM13.3912 33.923C13.332 33.9401 13.2642 33.9676 13.1887 34.0059C13.1128 34.0442 13.0573 34.0889 13.0216 34.1401C12.9626 34.0912 12.922 34.0289 12.8999 33.953C12.8777 33.8771 12.8658 33.8056 12.864 33.7384C12.8624 33.6707 12.8449 33.5967 12.8119 33.5163C12.7794 33.4356 12.7248 33.3661 12.6481 33.3078C12.4866 33.1834 12.2841 33.181 12.0413 33.2999C11.7983 33.4185 11.5685 33.6195 11.3514 33.9027C11.1392 34.179 11.0101 34.4744 10.9635 34.7883C10.917 35.1024 10.968 35.3162 11.1164 35.43C11.168 35.47 11.2316 35.4961 11.3071 35.5096C11.3825 35.5227 11.4603 35.5271 11.5404 35.5225C11.6208 35.5182 11.7042 35.5172 11.7915 35.5201C11.8786 35.5225 11.9723 35.5398 12.0727 35.5723C12.1728 35.6044 12.2678 35.6549 12.3576 35.7239C12.3227 35.7649 12.2735 35.8013 12.21 35.8327C12.1465 35.8643 12.0907 35.8883 12.0424 35.9048C11.994 35.9215 11.9525 35.9536 11.9173 36.0016C11.8821 36.0497 11.8668 36.1129 11.871 36.191C11.7748 36.0603 11.6839 35.9591 11.5976 35.8879C11.5116 35.8164 11.4399 35.7703 11.3827 35.7495C11.3254 35.7289 11.2506 35.6973 11.1582 35.655C11.0657 35.6126 10.9746 35.557 10.8847 35.488C10.6083 35.2761 10.4523 35.0014 10.4171 34.6634C10.3816 34.3257 10.5051 33.9727 10.788 33.6044C10.8998 33.4585 11.0326 33.3309 11.1858 33.2219C11.339 33.1128 11.5056 33.028 11.6856 32.9681C11.8654 32.9078 12.0588 32.8957 12.2654 32.9309C12.4718 32.9664 12.6676 33.0548 12.8517 33.196C12.9436 33.2665 13.0342 33.3513 13.1229 33.4496C13.2113 33.5481 13.2799 33.6192 13.3281 33.6632C13.3766 33.7075 13.487 33.7727 13.6599 33.8588C13.5401 33.8846 13.4506 33.9062 13.3911 33.923L13.3912 33.923ZM9.53313 34.3162L8.66667 33.4287L8.69716 33.3988C8.8472 33.5529 8.96808 33.5856 9.05909 33.4965L10.8218 31.7752C10.9129 31.6862 10.8832 31.5647 10.733 31.4107L10.7633 31.381L10.9977 31.6213C11.1817 31.8016 11.3678 31.9111 11.5556 31.9492C11.4751 31.9884 11.3839 32.0574 11.2829 32.1563L9.47465 33.9217C9.38334 34.0108 9.41291 34.1323 9.56341 34.2864L9.53307 34.3162H9.53313ZM8.20385 32.9967L7.98839 32.7016C7.86328 32.5301 7.82652 32.3692 7.87843 32.2192C7.84248 32.1895 7.74964 32.1343 7.60036 32.0542C7.45032 31.9741 7.3349 31.878 7.25297 31.766C7.04761 31.4846 6.97552 31.1768 7.03695 30.8433C7.09823 30.5091 7.31639 30.2052 7.69152 29.9314C7.84019 29.8229 8.00328 29.7379 8.18121 29.6765C8.35899 29.6151 8.54253 29.581 8.73218 29.5741C8.92179 29.5673 9.11068 29.6101 9.29876 29.7023C9.48719 29.7942 9.64962 29.9344 9.78646 30.1219C9.85498 30.2157 9.91795 30.3223 9.9753 30.4417C10.0326 30.5609 10.0783 30.6486 10.1118 30.7044C10.1457 30.7607 10.2335 30.8545 10.3751 30.986C10.253 30.9769 10.1608 30.9723 10.0992 30.9715C10.0375 30.9712 9.9647 30.9785 9.88129 30.9942C9.79783 31.0092 9.73186 31.0365 9.68332 31.0755C9.64055 31.0121 9.61929 30.9409 9.61929 30.8619C9.61959 30.7827 9.62821 30.7106 9.64539 30.6454C9.66283 30.5802 9.66721 30.5044 9.65829 30.4179C9.64947 30.3314 9.61659 30.2493 9.55999 30.1717C9.43983 30.0067 9.24645 29.9473 8.97991 29.9928C8.71322 30.0383 8.43608 30.1664 8.14787 30.3766C7.8665 30.582 7.65925 30.8287 7.52623 31.1169C7.39271 31.4054 7.38139 31.6249 7.49167 31.7758C7.51986 31.8147 7.55657 31.8468 7.60133 31.8718C7.64579 31.8972 7.68525 31.9151 7.7189 31.9254C7.75275 31.9356 7.80506 31.9485 7.87577 31.9634C7.94618 31.9785 7.99619 31.9895 8.02582 31.9959C8.04233 31.9803 8.07012 31.9583 8.10912 31.9301L8.57225 31.592C8.67524 31.5169 8.663 31.3923 8.53641 31.2185L8.57042 31.1935L8.76833 31.4645C8.9249 31.6693 9.0933 31.8042 9.27378 31.8688C9.18838 31.8958 9.0884 31.9512 8.9742 32.0346L8.20206 32.5981C8.09938 32.6732 8.11137 32.7976 8.23816 32.9716L8.2039 32.9967L8.20385 32.9967ZM6.34068 30.3425L6.30213 30.3605L5.80796 29.2833L5.8465 29.2654C5.92884 29.455 6.01581 29.5036 6.10682 29.4111L6.3938 29.1221L6.50031 28.8987C6.55236 28.7963 6.58264 28.7092 6.59177 28.6379C6.60054 28.5667 6.58463 28.4872 6.54369 28.4C6.46584 28.2333 6.39757 28.131 6.33889 28.0927C6.41124 28.0401 6.4768 27.9594 6.53548 27.8509L5.41916 27.9507C5.34437 27.9577 5.3019 27.9792 5.29216 28.0147C5.28232 28.0507 5.29125 28.0981 5.31888 28.1571L5.28034 28.1751L4.97617 27.5249L5.01456 27.5069C5.11056 27.7121 5.2216 27.8088 5.34702 27.7969L6.60431 27.6874C6.62052 27.6422 6.63189 27.5994 6.63796 27.5589L6.69557 27.6821L7.91656 27.5755L7.99635 27.496C8.07522 27.5714 8.22266 27.6058 8.43822 27.5987L8.53366 27.8027L6.3728 29.99C6.28302 30.0787 6.27241 30.1964 6.34063 30.3425L6.34068 30.3425ZM4.82118 27.0442L4.77943 27.0533L4.51508 25.8417L4.55679 25.8327C4.60257 26.0428 4.68766 26.1343 4.81206 26.1072L7.00738 25.6281L4.38462 25.2441L4.34852 25.0781L6.46966 23.7021L4.38676 24.1565C4.26205 24.184 4.2228 24.3025 4.26858 24.5129L4.22718 24.5221L4.05318 23.7251L4.09493 23.716C4.14056 23.9264 4.22581 24.0179 4.3502 23.9908L6.75716 23.4654C6.88186 23.4383 6.92096 23.3196 6.87518 23.1091L6.91673 23.1001L7.11215 23.9966L5.24628 25.208L7.44736 25.532L7.64304 26.4282L7.60133 26.4374C7.55555 26.227 7.47046 26.1355 7.34606 26.1628L4.93911 26.6881C4.81471 26.7153 4.7753 26.8341 4.82124 27.0442L4.82118 27.0442ZM5.04051 13.3082C5.1461 13.096 5.26061 12.9154 5.38378 12.7666C5.5068 12.6173 5.60754 12.5075 5.6858 12.4371C5.76421 12.3667 5.84237 12.2414 5.92048 12.0613C5.99858 11.8814 6.06262 11.6424 6.11258 11.3444C6.13593 11.3908 6.17126 11.4588 6.21857 11.5486C6.26609 11.6385 6.29795 11.6989 6.31417 11.73C6.33038 11.7612 6.35771 11.8077 6.39579 11.8699C6.43403 11.9322 6.46513 11.9765 6.48939 12.0029C6.51366 12.0295 6.54731 12.0636 6.58993 12.105C6.63271 12.1466 6.67778 12.1804 6.72524 12.2067C6.7723 12.2332 6.82614 12.2613 6.88604 12.2911C6.79198 12.4574 6.65193 12.5909 6.46655 12.6916C6.28103 12.7925 6.10024 12.8953 5.92379 13.0005C5.74754 13.106 5.61708 13.2441 5.53178 13.4148C5.44231 13.5948 5.41192 13.7686 5.44108 13.9355C5.4705 14.1029 5.57027 14.2291 5.74112 14.314C5.88902 14.3876 6.08153 14.3767 6.31891 14.2817C6.55634 14.1869 6.80707 14.0536 7.07055 13.8825C7.33449 13.7114 7.60526 13.5434 7.88286 13.3795C8.16036 13.2151 8.4478 13.1003 8.74529 13.035C9.04277 12.97 9.30702 12.9948 9.53787 13.1096C9.96719 13.3234 10.2245 13.6516 10.3094 14.0943C10.3947 14.5371 10.3244 14.9846 10.0992 15.437C10.0097 15.6171 9.90729 15.7623 9.79217 15.8719C9.6772 15.9816 9.58085 16.0652 9.50381 16.1214C9.42657 16.1783 9.34378 16.3099 9.25547 16.5163C9.16702 16.7229 9.09085 17.0179 9.02686 17.4007C8.87652 17.1127 8.7408 16.8969 8.61916 16.753C8.49777 16.6092 8.33441 16.4889 8.12916 16.3923C8.20726 16.2585 8.32182 16.1412 8.47273 16.0403C8.62339 15.9399 8.7693 15.8641 8.90991 15.8131C9.05037 15.762 9.18874 15.6954 9.3245 15.6133C9.46058 15.5311 9.55505 15.437 9.60771 15.3308C9.69964 15.1461 9.73818 14.9447 9.72268 14.7268C9.70708 14.5089 9.59558 14.3482 9.38777 14.2449C9.2308 14.1666 9.05373 14.1519 8.85653 14.2009C8.65959 14.2496 8.46921 14.3397 8.28613 14.4699C8.10321 14.6007 7.89979 14.74 7.67633 14.8882C7.45292 15.036 7.23915 15.1703 7.03547 15.2906C6.83144 15.4109 6.61022 15.4851 6.37147 15.5132C6.13287 15.5413 5.90503 15.5015 5.68794 15.3936C5.26326 15.1821 5.00013 14.8798 4.89898 14.4866C4.79799 14.0939 4.84514 13.701 5.04056 13.3083L5.04051 13.3082ZM11.1255 6.03222L11.4625 5.79862L16.0522 9.00774C16.2392 9.14167 16.4537 9.12515 16.6951 8.95737L16.7394 9.02079L14.9569 10.2384L14.9129 10.175C15.228 9.96887 15.2884 9.79807 15.0942 9.66302L14.4877 9.23645L14.0542 9.11358C13.8541 9.05138 13.6885 9.02344 13.5578 9.02941C13.427 9.03547 13.2895 9.08824 13.1454 9.18822C12.8699 9.37935 12.707 9.53332 12.6561 9.65012C12.5396 9.53633 12.3748 9.44385 12.1617 9.37181L12.6833 11.345C12.7186 11.4775 12.7699 11.547 12.8372 11.5536C12.9047 11.5601 12.9871 11.5296 13.0845 11.4622L13.1286 11.5255L12.0545 12.271L12.0102 12.2074C12.3492 11.9723 12.4888 11.7435 12.4289 11.5213L11.8468 9.29824C11.7609 9.28294 11.6805 9.2755 11.6062 9.27698L11.8095 9.13591L11.2436 6.97653L11.0765 6.85748C11.1876 6.69215 11.2042 6.41724 11.1253 6.03227L11.1255 6.03222ZM18.2169 3.4144C18.4172 3.39651 18.6163 3.35175 18.8146 3.27955C19.0128 3.20767 19.1487 3.11921 19.2222 3.01409C19.2773 3.16974 19.3959 3.36648 19.5776 3.60406L21.0559 5.7249L21.7954 4.26087C21.875 4.10874 21.8818 3.93988 21.816 3.7539C21.7502 3.56837 21.6134 3.41211 21.4056 3.28562C21.9172 3.2195 22.3969 3.02153 22.8439 2.69157L21.1434 6.01188L21.3267 8.0695C21.3474 8.30086 21.553 8.39895 21.9433 8.36423L21.9502 8.44116L19.7 8.64153L19.6932 8.56449C20.0835 8.52993 20.2686 8.39686 20.2479 8.16555L20.0613 6.06975L18.4425 3.76715C18.312 3.58224 18.0978 3.50276 17.8001 3.52927L17.7931 3.45208L18.2169 3.41445L18.2169 3.4144ZM26.0821 7.6156L27.6023 4.56137C27.7054 4.35356 27.5818 4.16227 27.2309 3.98755L27.2652 3.91837L27.8124 4.19067C27.9994 4.27785 28.2101 4.34963 28.4442 4.40577C28.6785 4.46159 28.8762 4.47811 29.0378 4.45461C28.9228 4.57034 28.8076 4.74358 28.6928 4.97433L27.2209 7.9319C27.129 8.11651 27.0692 8.28261 27.0421 8.43036C27.0145 8.57816 27.0102 8.69674 27.0289 8.78668C27.0474 8.87681 27.0881 8.96022 27.1505 9.03726C27.2127 9.1146 27.2693 9.16849 27.3201 9.19959C27.3709 9.23069 27.4356 9.26556 27.5143 9.30471C27.7682 9.43105 28.081 9.38695 28.4533 9.17149C28.8255 8.95625 29.0838 8.70322 29.2287 8.41231L30.442 5.97426C30.5451 5.76645 30.4215 5.57531 30.0706 5.40085L30.1049 5.33136L32.1968 6.37248L32.1622 6.44182C31.8113 6.26705 31.5843 6.28377 31.4808 6.49127L29.4817 10.5084C29.3807 10.7118 29.503 10.9054 29.8496 11.0893L29.8149 11.1585L29.2713 10.879C28.9732 10.7254 28.7722 10.5156 28.668 10.2507C28.5637 9.98554 28.5864 9.70294 28.7357 9.40286L28.8187 9.23645C28.5167 9.4957 28.1703 9.67607 27.7797 9.77829C27.389 9.88036 27.0088 9.83973 26.6394 9.65604C26.3114 9.49279 26.0769 9.23206 25.9357 8.8733C25.7943 8.51509 25.843 8.09586 26.0821 7.6156H26.0821ZM33.465 21.5001C33.465 28.1077 28.1085 33.4642 21.5008 33.4642C14.8933 33.4642 9.53669 28.1077 9.53669 21.5001C9.53669 14.8924 14.8933 9.53592 21.5008 9.53592C28.1085 9.53592 33.465 14.8924 33.465 21.5001ZM35.9724 10.8425C36.1719 10.7241 36.172 10.4964 35.9727 10.1591L36.039 10.1197L37.3237 12.2901C37.5838 12.7296 37.7043 13.1662 37.6853 13.5999C37.6664 14.0337 37.4772 14.357 37.1177 14.5697C36.8511 14.7275 36.5717 14.7563 36.2793 14.6567C35.9865 14.5572 35.6376 14.3727 35.2323 14.1032C35.2497 14.123 35.2705 14.1525 35.294 14.1924C35.47 14.4897 35.5418 14.7906 35.5091 15.0947C35.476 15.3987 35.291 15.6507 34.9539 15.8507L34.4679 16.138C33.9839 16.4245 33.8013 16.6674 33.9195 16.8672C33.9614 16.9383 34.0212 16.9855 34.0976 17.009C34.1745 17.0323 34.2488 17.0287 34.3206 16.9984C34.2873 17.0838 34.2807 17.1536 34.3009 17.2077C34.0498 17.1885 33.8387 17.0348 33.668 16.7463C33.4948 16.4532 33.4216 16.1653 33.4492 15.8825C33.4766 15.5995 33.6344 15.3727 33.9227 15.202L34.2625 15.001C34.5596 14.825 34.7252 14.6131 34.7586 14.3657C34.7918 14.1183 34.723 13.8803 34.5518 13.6518C34.214 13.4563 33.9353 13.3545 33.7149 13.347L32.6233 13.9931C32.4234 14.1116 32.4234 14.3394 32.6233 14.6766L32.5564 14.716L31.4453 12.8385L31.512 12.7991C31.7115 13.1365 31.9113 13.2462 32.1111 13.1279L35.9725 10.8426L35.9724 10.8425ZM21.5008 2.01074C10.7371 2.01074 2.01172 10.7365 2.01172 21.5C2.01172 32.2635 10.7372 40.9892 21.5008 40.9892C32.2646 40.9892 40.9901 32.2635 40.9901 21.5C40.9901 10.7365 32.2646 2.01074 21.5008 2.01074Z" fill="white"/>
<path d="M12.3503 8.76092C12.4941 8.66109 12.6317 8.60787 12.7625 8.60195C12.8933 8.59588 13.0587 8.62428 13.2586 8.68612L14.0095 8.89969L11.5898 7.2168L12.0514 8.96811L12.3503 8.76092Z" fill="white"/>
<path d="M21.3926 37.5422L21.5921 37.5345C21.6884 37.5308 21.7677 37.5469 21.83 37.5829C21.8922 37.6188 21.9605 37.6807 22.0348 37.7684L22.3189 38.0892L21.6967 36.5957L21.3926 37.5423L21.3926 37.5422Z" fill="white"/>
<path d="M6.76291 27.8284L6.84775 28.0092C6.88838 28.0963 6.90429 28.1756 6.89552 28.2469C6.8866 28.3184 6.85621 28.4054 6.8039 28.5078L6.61914 28.8943L7.75351 27.7402L6.76291 27.8284Z" fill="white"/>
<path d="M51.0001 29.7455V28.5261H51.9382C52.0877 28.5261 52.2374 28.4904 52.3871 28.42C52.5366 28.3505 52.6588 28.235 52.7541 28.074C52.8488 27.9121 52.8973 27.7058 52.8973 27.4536V17.1281C52.8973 16.8344 52.8487 16.5999 52.7541 16.4236C52.6588 16.2495 52.5366 16.1266 52.3871 16.0562C52.2374 15.9859 52.0877 15.9504 51.9382 15.9504H51.0001V14.7316H58.5061V15.9504H57.5477C57.3569 15.9504 57.1902 15.9893 57.0478 16.0668C56.9048 16.1446 56.7963 16.2668 56.7211 16.4348C56.6459 16.603 56.6094 16.8417 56.6094 17.1498V27.4107C56.6094 27.65 56.6533 27.8564 56.7422 28.0318C56.8295 28.2074 56.9418 28.3336 57.0784 28.4103C57.2143 28.4872 57.3705 28.5261 57.5476 28.5261H58.506V29.7455H51H51.0001Z" fill="white"/>
<path d="M59.4648 29.7455V28.5261H60.0562C60.3141 28.5261 60.5422 28.4976 60.7395 28.4419C60.937 28.3853 61.0898 28.2631 61.199 28.0739C61.3074 27.8845 61.3615 27.6007 61.3615 27.2223V17.1709C61.3615 16.8062 61.3074 16.54 61.199 16.3718C61.0898 16.2035 60.9466 16.0912 60.7703 16.0355C60.5933 15.9795 60.4097 15.9505 60.2197 15.9505H59.4649V14.7317H64.3394L71.4785 24.7411V17.1709C71.4785 16.8491 71.4307 16.5999 71.3361 16.4237C71.2408 16.2496 71.1112 16.1267 70.9487 16.0563C70.7856 15.986 70.5946 15.9505 70.3778 15.9505H69.6232V14.7317H75.0073V15.9505H74.2525C74.035 15.9505 73.841 15.9894 73.6712 16.0669C73.5013 16.1446 73.3685 16.2771 73.274 16.4665C73.1784 16.655 73.1308 16.9185 73.1308 17.255V29.7456H71.0911L62.9937 18.3696V27.2224C62.9937 27.6008 63.035 27.8846 63.1159 28.074C63.1976 28.2632 63.3237 28.3853 63.4935 28.442C63.6633 28.4977 63.8631 28.5262 64.0952 28.5262H64.8699V29.7456H59.4649L59.4648 29.7455Z" fill="white"/>
<path d="M80.9015 29.9557C79.8816 29.9557 79.0421 29.861 78.3822 29.6719C77.7221 29.4825 77.2061 29.2407 76.8326 28.9462C76.458 28.6519 76.1959 28.3332 76.0472 27.9896C75.8975 27.6466 75.8223 27.3273 75.8223 27.033C75.8223 26.4587 75.9413 26.013 76.1799 25.6975C76.4176 25.382 76.7225 25.1613 77.097 25.0352C77.4716 24.9091 77.8757 24.8459 78.3108 24.8459C78.3239 25.7292 78.4743 26.4471 78.7597 27.0013C79.0453 27.5554 79.4123 27.958 79.8612 28.2104C80.3101 28.4628 80.7922 28.5889 81.309 28.5889C82.057 28.5889 82.6378 28.3754 83.0534 27.9476C83.4674 27.5195 83.6754 27.0329 83.6754 26.4862C83.6754 26.0235 83.5356 25.6271 83.2573 25.2981C82.9783 24.9689 82.5771 24.6599 82.0539 24.3728C81.5299 24.0857 80.9014 23.7873 80.1672 23.4792C79.1609 23.0585 78.3723 22.6096 77.8015 22.1332C77.2297 21.6568 76.8253 21.1346 76.5875 20.5666C76.3499 19.999 76.2309 19.3924 76.2309 18.7478C76.2309 17.8784 76.4653 17.1285 76.9344 16.4979C77.4035 15.8669 78.0386 15.38 78.8416 15.0364C79.6431 14.6933 80.5406 14.5212 81.534 14.5212C82.5806 14.5212 83.4441 14.6505 84.1244 14.9103C84.8037 15.1698 85.3036 15.4958 85.623 15.888C85.9424 16.281 86.1027 16.687 86.1027 17.1077C86.1027 17.627 85.8947 18.0538 85.4806 18.3903C85.0656 18.7267 84.3685 18.895 83.39 18.895C83.39 18.4324 83.3049 17.9697 83.1352 17.5071C82.9644 17.0447 82.7129 16.6621 82.3798 16.3612C82.0465 16.0595 81.6284 15.9091 81.1254 15.9091C80.568 15.9091 80.1089 16.0498 79.749 16.3296C79.3881 16.6102 79.2086 17.0447 79.2086 17.6335C79.2086 17.9697 79.2969 18.2926 79.4732 18.6007C79.6502 18.9098 79.9963 19.2316 80.5141 19.568C81.0307 19.9045 81.7717 20.2756 82.7374 20.6824C83.7295 21.0893 84.5118 21.5267 85.0827 21.9967C85.6537 22.4667 86.0613 22.9744 86.3064 23.5212C86.5514 24.068 86.6737 24.6849 86.6737 25.3719C86.6737 26.2832 86.4392 27.0824 85.9699 27.769C85.5008 28.4563 84.8344 28.9925 83.9707 29.3777C83.1078 29.7633 82.0846 29.9559 80.9014 29.9559L80.9015 29.9557Z" fill="white"/>
<path d="M90.3865 29.7455V28.5261H90.9989C91.2569 28.5261 91.4881 28.4944 91.6919 28.4314C91.8957 28.3684 92.0559 28.2421 92.1715 28.0529C92.2873 27.8635 92.3445 27.5724 92.3445 27.18V16.1187H90.8354C90.237 16.1187 89.8221 16.2352 89.5916 16.4664C89.3594 16.6977 89.217 17.0446 89.163 17.5073L88.9793 18.9785H87.4902L87.5922 14.7317H100.809L100.912 18.9785H99.4221L99.2596 17.5073C99.2046 17.0446 99.0623 16.6977 98.831 16.4664C98.5996 16.2351 98.1782 16.1187 97.5662 16.1187H96.0779V27.2223C96.0779 27.6007 96.1354 27.8845 96.2509 28.0739C96.3666 28.2631 96.5261 28.3852 96.7298 28.442C96.9344 28.4976 97.1649 28.5261 97.4238 28.5261H98.036V29.7455H90.3865Z" fill="white"/>
<path d="M106.03 23.4579H109.946L108.763 19.5045C108.681 19.2248 108.601 18.9442 108.519 18.6633C108.437 18.3836 108.359 18.0924 108.284 17.7908C108.209 17.49 108.138 17.1842 108.07 16.8761C108.002 17.1714 107.927 17.4648 107.846 17.7592C107.764 18.0538 107.682 18.3416 107.601 18.6223C107.519 18.902 107.43 19.1826 107.336 19.4633L106.03 23.4579ZM101.135 29.7453V28.5265H101.318C101.549 28.5265 101.764 28.4876 101.961 28.41C102.158 28.3332 102.342 28.1899 102.511 27.9788C102.681 27.7686 102.841 27.4605 102.991 27.0538L107.356 14.7312H110.66L114.903 27.1805C115.025 27.5026 115.164 27.7612 115.32 27.958C115.478 28.1544 115.658 28.2975 115.862 28.3898C116.065 28.4804 116.29 28.5265 116.535 28.5265H116.78V29.7453H109.579V28.5265H110.334C110.593 28.5265 110.81 28.4772 110.986 28.3784C111.164 28.2806 111.252 28.0914 111.252 27.8108C111.252 27.6854 111.241 27.5616 111.221 27.4426C111.201 27.3239 111.173 27.2081 111.139 27.0958C111.105 26.9833 111.074 26.9 111.048 26.8443L110.375 24.8459H105.601L105.071 26.4859C105.044 26.5983 105.01 26.7319 104.969 26.8855C104.929 27.0401 104.891 27.1978 104.857 27.3587C104.823 27.5197 104.807 27.6636 104.807 27.7898C104.807 28.0284 104.871 28.2102 105 28.3365C105.129 28.4626 105.35 28.5266 105.663 28.5266H106.581V29.7454H101.135V29.7453Z" fill="white"/>
<path d="M117.27 29.7455V28.5261H117.861C118.119 28.5261 118.347 28.4976 118.544 28.4419C118.741 28.3853 118.894 28.2631 119.003 28.0739C119.112 27.8845 119.166 27.6007 119.166 27.2223V17.1709C119.166 16.8062 119.112 16.54 119.003 16.3718C118.894 16.2035 118.752 16.0912 118.575 16.0355C118.399 15.9795 118.214 15.9505 118.024 15.9505H117.27V14.7317H122.144L129.283 24.7411V17.1709C129.283 16.8491 129.235 16.5999 129.14 16.4237C129.045 16.2496 128.916 16.1267 128.753 16.0563C128.59 15.986 128.399 15.9505 128.182 15.9505H127.428V14.7317H132.812V15.9505H132.058C131.84 15.9505 131.646 15.9894 131.475 16.0669C131.306 16.1446 131.173 16.2771 131.078 16.4665C130.983 16.655 130.935 16.9185 130.935 17.255V29.7456H128.896L120.798 18.3696V27.2224C120.798 27.6008 120.839 27.8846 120.92 28.074C121.002 28.2632 121.128 28.3853 121.298 28.442C121.468 28.4977 121.668 28.5262 121.9 28.5262H122.675V29.7456H117.27L117.27 29.7455Z" fill="white"/>
<path d="M136.076 29.7455V28.5261H136.688C136.946 28.5261 137.178 28.4944 137.381 28.4314C137.585 28.3684 137.745 28.2421 137.861 28.0529C137.977 27.8635 138.034 27.5724 138.034 27.18V16.1187H136.525C135.926 16.1187 135.512 16.2352 135.281 16.4664C135.049 16.6977 134.906 17.0446 134.852 17.5073L134.669 18.9785H133.18L133.282 14.7317H146.499L146.601 18.9785H145.112L144.949 17.5073C144.894 17.0446 144.752 16.6977 144.52 16.4664C144.289 16.2351 143.868 16.1187 143.255 16.1187H141.767V27.2223C141.767 27.6007 141.825 27.8845 141.94 28.0739C142.056 28.2631 142.215 28.3852 142.419 28.442C142.624 28.4976 142.854 28.5261 143.113 28.5261H143.725V29.7455H136.076H136.076Z" fill="white"/>
<path d="M160.327 29.9557C158.736 29.9557 157.403 29.6339 156.329 28.9885C155.255 28.3438 154.452 27.4428 153.922 26.2862C153.392 25.1298 153.127 23.7736 153.127 22.2174C153.127 20.7033 153.399 19.3682 153.942 18.2116C154.486 17.0549 155.295 16.1508 156.369 15.499C157.444 14.8472 158.776 14.5212 160.368 14.5212C161.456 14.5212 162.36 14.6304 163.08 14.8472C163.801 15.0647 164.341 15.3623 164.702 15.7408C165.062 16.1193 165.242 16.5398 165.242 17.0024C165.242 17.5492 165 18.0118 164.518 18.3903C164.036 18.7688 163.317 18.958 162.366 18.958C162.366 18.4954 162.298 18.0328 162.162 17.5703C162.027 17.1077 161.798 16.726 161.479 16.4243C161.159 16.1225 160.728 15.9722 160.183 15.9722C159.396 15.9722 158.769 16.214 158.307 16.6976C157.845 17.1813 157.514 17.889 157.318 18.8214C157.12 19.754 157.022 20.8854 157.022 22.2174C157.022 23.6053 157.151 24.7376 157.41 25.6133C157.668 26.4899 158.083 27.1315 158.654 27.5374C159.225 27.9441 159.986 28.1473 160.939 28.1473C161.659 28.1473 162.271 28.0388 162.774 27.8213C163.277 27.6045 163.702 27.3343 164.049 27.0117C164.395 26.6899 164.685 26.3735 164.916 26.0654C165.011 26.1495 165.089 26.2862 165.151 26.4755C165.211 26.6647 165.242 26.8371 165.242 26.9906C165.242 27.3134 165.167 27.6426 165.018 27.9789C164.868 28.3155 164.61 28.6341 164.243 28.9356C163.876 29.2374 163.372 29.4824 162.733 29.6718C162.094 29.861 161.291 29.9556 160.326 29.9556L160.327 29.9557Z" fill="white"/>
<path d="M174.34 28.4835C175.115 28.4835 175.734 28.2345 176.196 27.737C176.658 27.2397 176.991 26.5247 177.195 25.593C177.4 24.6597 177.502 23.5353 177.502 22.2172C177.502 20.8997 177.4 19.7714 177.195 18.8317C176.991 17.8927 176.658 17.1811 176.196 16.6983C175.734 16.2137 175.122 15.972 174.36 15.972C173.178 15.972 172.341 16.5153 171.851 17.6015C171.361 18.6884 171.117 20.2268 171.117 22.2172C171.117 24.1938 171.362 25.7329 171.851 26.8328C172.341 27.9334 173.171 28.4835 174.34 28.4835H174.34ZM174.34 29.9555C172.735 29.9555 171.409 29.6336 170.363 28.9883C169.315 28.3436 168.527 27.4394 167.996 26.2764C167.466 25.1128 167.201 23.7523 167.201 22.197C167.201 20.6411 167.466 19.288 167.996 18.1377C168.527 16.9885 169.318 16.0955 170.373 15.4575C171.426 14.8186 172.756 14.5 174.36 14.5C175.87 14.5 177.151 14.8186 178.205 15.4575C179.259 16.0955 180.057 16.9917 180.602 18.1491C181.146 19.3049 181.418 20.6612 181.418 22.2173C181.418 23.7742 181.146 25.1305 180.602 26.2861C180.057 27.4427 179.259 28.3437 178.205 28.9883C177.151 29.6337 175.863 29.9556 174.34 29.9556V29.9555Z" fill="white"/>
<path d="M183.029 29.7455V28.5261H183.662C183.947 28.5261 184.182 28.4944 184.366 28.4314C184.549 28.3684 184.689 28.2558 184.783 28.0949C184.879 27.9339 184.927 27.7196 184.927 27.4536V17.0649C184.927 16.7859 184.879 16.5612 184.783 16.393C184.689 16.2246 184.566 16.1091 184.417 16.0458C184.267 15.982 184.097 15.9505 183.907 15.9505H183.029V14.7317H194.758L194.86 18.685H193.289L193.188 17.6327C193.12 17.0446 192.955 16.6453 192.698 16.4348C192.439 16.2245 192.146 16.1187 191.821 16.1187H188.618V21.7121H193.432V23.0377H188.618V27.4107C188.618 27.6639 188.659 27.874 188.741 28.0423C188.823 28.2106 188.955 28.3335 189.139 28.4103C189.322 28.4872 189.55 28.5261 189.821 28.5261H190.944V29.7455H183.029H183.029Z" fill="white"/>
<path d="M195.961 29.7455V28.5261H196.594C196.879 28.5261 197.114 28.4944 197.297 28.4314C197.481 28.3684 197.621 28.2558 197.715 28.0949C197.81 27.9339 197.859 27.7196 197.859 27.4536V17.0649C197.859 16.7859 197.81 16.5612 197.715 16.393C197.62 16.2246 197.498 16.1091 197.348 16.0458C197.199 15.982 197.029 15.9505 196.839 15.9505H195.961V14.7317H207.69L207.792 18.685H206.221L206.119 17.6327C206.051 17.0446 205.887 16.6453 205.629 16.4348C205.371 16.2245 205.078 16.1187 204.753 16.1187H201.55V21.7121H206.364V23.0377H201.55V27.4107C201.55 27.6639 201.591 27.874 201.673 28.0423C201.755 28.2106 201.886 28.3335 202.071 28.4103C202.253 28.4872 202.481 28.5261 202.753 28.5261H203.875V29.7455H195.961H195.961Z" fill="white"/>
<path d="M208.893 29.7455V28.5261H209.789C210.008 28.5261 210.188 28.4832 210.331 28.3997C210.474 28.315 210.586 28.1928 210.667 28.0317C210.749 27.8708 210.79 27.6711 210.79 27.4325V17.1498C210.79 16.7858 210.741 16.5189 210.647 16.3506C210.551 16.1817 210.426 16.0741 210.269 16.0248C210.113 15.9762 209.946 15.9504 209.77 15.9504H208.893V14.7316H220.662L220.723 18.6849H219.153L219.051 17.6544C218.996 17.1222 218.867 16.7325 218.662 16.4865C218.459 16.2424 218.105 16.1186 217.602 16.1186H214.481V21.2292H219.316V22.5748H214.481V28.3577H218.174C218.649 28.3577 219.006 28.2169 219.244 27.937C219.482 27.6564 219.635 27.2852 219.703 26.8226L219.866 25.7914H221.416L221.274 29.7454H208.893L208.893 29.7455Z" fill="white"/>
<path d="M222.477 29.7455V28.5261H223.374C223.592 28.5261 223.772 28.4832 223.915 28.3997C224.058 28.315 224.17 28.1928 224.251 28.0317C224.333 27.8708 224.374 27.6711 224.374 27.4325V17.1498C224.374 16.7858 224.325 16.5189 224.231 16.3506C224.136 16.1817 224.01 16.0741 223.853 16.0248C223.697 15.9762 223.531 15.9504 223.354 15.9504H222.477V14.7316H234.246L234.307 18.6849H232.737L232.635 17.6544C232.58 17.1222 232.451 16.7325 232.247 16.4865C232.043 16.2424 231.689 16.1186 231.187 16.1186H228.065V21.2292H232.9V22.5748H228.065V28.3577H231.758C232.233 28.3577 232.59 28.2169 232.829 27.937C233.067 27.6564 233.219 27.2852 233.287 26.8226L233.45 25.7914H235L234.858 29.7454H222.477V29.7455Z" fill="white"/>
</svg>
