<svg width="135" height="30" viewBox="0 0 135 30" fill="none" xmlns="http://www.w3.org/2000/svg">
<path d="M15 29.7502C13.0086 29.7502 11.077 29.3602 9.25864 28.5912C7.50237 27.8482 5.92479 26.7846 4.57013 25.43C3.21543 24.0753 2.15193 22.4979 1.409 20.7415C0.639876 18.9232 0.25 16.9915 0.25 15.0001C0.25 13.0088 0.639876 11.0772 1.409 9.25886C2.15193 7.50237 3.21546 5.9249 4.57013 4.57024C5.92482 3.21547 7.50237 2.15194 9.25864 1.40896C11.077 0.639989 13.0087 0.249969 15 0.249969C16.9913 0.249969 18.923 0.639953 20.7414 1.40896C22.4978 2.1519 24.0752 3.21543 25.4299 4.57024C26.7846 5.9249 27.8481 7.50234 28.591 9.25886C29.3601 11.0772 29.75 13.0088 29.75 15.0001C29.75 16.9915 29.3601 18.9232 28.591 20.7415C27.8481 22.4979 26.7845 24.0753 25.4299 25.43C24.0752 26.7846 22.4978 27.8482 20.7414 28.5912C18.923 29.3601 16.9913 29.7502 15 29.7502Z" fill="#0C5E43"/>
<path d="M15 29.1972C7.15914 29.1972 0.802875 22.8409 0.802875 15.0001C0.802875 7.15932 7.15914 0.802981 15 0.802981C22.8409 0.802981 29.1972 7.15932 29.1972 15.0001C29.1972 22.8409 22.8409 29.1972 15 29.1972ZM15 0C6.71569 0 0 6.71576 0 15.0001C0 23.2843 6.71569 30.0001 15 30.0001C23.2843 30.0001 30 23.2843 30 15.0001C30 6.71576 23.2843 0 15 0Z" fill="white"/>
<path d="M11.6232 18.7885C11.6232 18.8056 11.626 18.8168 11.6227 18.8258C11.6115 18.8559 11.5996 18.886 11.5853 18.9147C11.5438 18.9989 11.5189 19.0885 11.4985 19.1794C11.4872 19.2299 11.4822 19.2818 11.4732 19.333C11.4419 19.5125 11.4451 19.6939 11.4459 19.8751C11.4462 20.008 11.4594 20.1401 11.4818 20.2708C11.4946 20.3464 11.4965 20.4247 11.5332 20.4952C11.5449 20.5176 11.5496 20.5439 11.5313 20.5667C11.5118 20.5908 11.4849 20.591 11.4574 20.5845C11.4225 20.5763 11.388 20.5655 11.3528 20.5592C11.24 20.5393 11.1271 20.5209 11.0143 20.5021C10.9876 20.4976 10.9612 20.4924 10.9344 20.4903C10.8866 20.4867 10.8583 20.5176 10.8705 20.5588C10.8731 20.5673 10.8726 20.5766 10.8752 20.5853C10.9044 20.6904 10.934 20.7954 10.9631 20.9006C10.9927 21.0074 11.0205 21.1149 11.0515 21.2212C11.0819 21.3243 11.1149 21.4264 11.1478 21.5286C11.208 21.7149 11.268 21.9016 11.33 22.0874C11.1933 22.0165 11.0589 21.9417 10.927 21.8632C10.8903 21.7625 10.854 21.6615 10.8176 21.5608C10.7667 21.4192 10.7178 21.2769 10.6725 21.1334C10.6059 20.9235 10.5412 20.7129 10.4805 20.5011C10.444 20.3738 10.4161 20.2443 10.3855 20.1155C10.3736 20.0664 10.4026 20.0299 10.453 20.028C10.4653 20.0277 10.4778 20.0311 10.4899 20.0337C10.5707 20.0499 10.6506 20.0731 10.7323 20.0811C10.8146 20.0894 10.8948 20.1048 10.9751 20.1225C10.9926 20.1265 11.0107 20.1283 11.0284 20.1278C11.0612 20.1269 11.0781 20.1136 11.0858 20.0819C11.0893 20.0664 11.0901 20.0496 11.088 20.034C11.0739 19.9331 11.0826 19.8322 11.099 19.7337C11.1357 19.5128 11.2036 19.3016 11.3265 19.1117C11.3861 19.02 11.4467 18.9286 11.523 18.8493C11.5488 18.8223 11.5753 18.7957 11.6232 18.7886L11.6232 18.7885Z" fill="white"/>
<path d="M14.5822 22.9118C14.5842 22.9311 14.586 22.9503 14.5881 22.9695C13.9282 22.9361 13.2897 22.8222 12.6817 22.638C12.6743 22.6058 12.6674 22.5738 12.6606 22.5417C12.633 22.4069 12.5944 22.2746 12.5717 22.1385C12.5595 22.0646 12.5391 21.9917 12.5252 21.9179C12.5141 21.86 12.5088 21.8008 12.4983 21.7426C12.4761 21.6231 12.4489 21.5043 12.43 21.3842C12.406 21.2323 12.3867 21.0795 12.3677 20.9267C12.3461 20.7543 12.3267 20.5816 12.3069 20.4091C12.3008 20.3556 12.2998 20.3012 12.2899 20.2486C12.2769 20.1795 12.2833 20.1148 12.3057 20.0479C12.3615 19.8816 12.4127 19.7139 12.4655 19.5464C12.4737 19.5209 12.4785 19.4942 12.4867 19.4688C12.5028 19.4194 12.5309 19.4066 12.5767 19.4279C12.6042 19.4408 12.6303 19.457 12.6571 19.4715C12.6982 19.4933 12.738 19.5187 12.7809 19.536C12.8939 19.5815 13.0081 19.6241 13.1225 19.666C13.1457 19.6745 13.1715 19.6779 13.1964 19.6789C13.2086 19.6795 13.2306 19.6717 13.2321 19.6642C13.235 19.6514 13.229 19.6324 13.2196 19.6227C13.2011 19.6034 13.1778 19.589 13.1565 19.5726C13.0228 19.4701 12.9124 19.3454 12.8151 19.209C12.7579 19.1288 12.705 19.0454 12.6527 18.9619C12.6272 18.9217 12.6162 18.878 12.6278 18.8284C12.6691 18.6526 12.6783 18.4738 12.6756 18.2939C12.6732 18.1344 12.6659 17.9747 12.7105 17.8182C12.7312 17.7464 12.761 17.6801 12.8098 17.6234C12.8264 17.6046 12.847 17.5868 12.8755 17.5992C12.9003 17.61 12.9076 17.633 12.9049 17.6576C12.8986 17.7136 12.9131 17.768 12.9159 17.823C12.9211 17.9243 12.9405 18.0224 12.9669 18.1188C13.0686 18.4909 13.2718 18.7977 13.5734 19.0371C13.7186 19.1523 13.879 19.2442 14.053 19.3107C14.1099 19.3324 14.125 19.3677 14.092 19.4199C14.0337 19.5123 13.9723 19.6029 13.9096 19.6925C13.8591 19.7652 13.7924 19.823 13.7269 19.882C13.6789 19.925 13.6749 19.9652 13.7077 20.0208C13.716 20.0347 13.7247 20.0483 13.735 20.0609C13.8398 20.1914 13.9565 20.3105 14.0848 20.4179C14.188 20.5042 14.293 20.5886 14.3978 20.6727C14.4416 20.7077 14.4628 20.7491 14.4621 20.8069C14.4609 20.9126 14.4663 21.0184 14.4692 21.1243C14.4716 21.2123 14.4725 21.3004 14.4776 21.3881C14.4851 21.5224 14.4967 21.6565 14.5046 21.7907C14.5116 21.9071 14.5152 22.0237 14.5216 22.1399C14.5264 22.2223 14.5334 22.3046 14.5403 22.3868C14.548 22.4777 14.5575 22.5686 14.5649 22.6596C14.5716 22.7437 14.574 22.8281 14.5822 22.912L14.5822 22.9118Z" fill="white"/>
<path d="M15.1052 16.7743C15.1549 16.8557 15.1584 16.9444 15.1053 17.029C15.0341 17.1425 14.9311 17.2015 14.7981 17.222C14.5948 17.2537 14.411 17.2031 14.2358 17.107C13.9688 16.9604 13.764 16.7474 13.5929 16.4989C13.4876 16.3463 13.3958 16.1863 13.3262 16.0143C13.2778 15.8947 13.2272 15.7755 13.1963 15.6503C13.1602 15.5044 13.1259 15.3579 13.1004 15.21C13.0803 15.0938 13.0725 14.9753 13.0634 14.8575C13.0563 14.766 13.0621 14.674 13.0842 14.5849C13.1132 14.4678 13.1876 14.3908 13.305 14.3575C13.4014 14.3302 13.4971 14.3398 13.5915 14.367C13.7257 14.4052 13.858 14.4509 13.9933 14.4845C14.1751 14.5297 14.3427 14.5033 14.4784 14.3599C14.5091 14.3274 14.5399 14.2944 14.5727 14.2641C14.665 14.1788 14.7708 14.1289 14.9003 14.1485C14.9213 14.1517 14.9423 14.1573 14.9622 14.1646C15.05 14.1968 15.0585 14.2144 15.0568 14.3074C15.0541 14.4493 15.0561 14.5909 15.0561 14.7327H15.053C15.053 14.8817 15.0513 15.0307 15.0537 15.1796C15.0553 15.2637 15.0123 15.311 14.9248 15.3207C14.8415 15.3298 14.7611 15.32 14.6879 15.2704C14.6513 15.2455 14.6091 15.2272 14.5671 15.2127C14.5025 15.1905 14.452 15.2264 14.4477 15.2944C14.446 15.3155 14.4473 15.3376 14.4514 15.3584C14.4592 15.3976 14.4838 15.4175 14.5238 15.4275C14.5755 15.4403 14.6264 15.4587 14.6752 15.48C14.6967 15.4894 14.7161 15.5094 14.7306 15.5289C14.7529 15.5596 14.7399 15.5847 14.7027 15.5888C14.6921 15.5898 14.6811 15.59 14.6704 15.5888C14.5702 15.5766 14.4889 15.6217 14.4141 15.6788C14.3658 15.7155 14.325 15.762 14.2794 15.8023C14.2391 15.8379 14.1985 15.8738 14.1551 15.9051C14.0842 15.9562 14.0419 15.9625 13.945 15.8951C13.9303 15.8849 13.9186 15.8703 13.904 15.8601C13.8693 15.8362 13.8382 15.8462 13.8233 15.8861C13.8077 15.9272 13.8123 15.9682 13.8319 16.0061C13.8729 16.0856 13.9365 16.1352 14.0257 16.1537C14.1259 16.1745 14.2242 16.1664 14.3245 16.1504C14.4692 16.1277 14.6055 16.0805 14.7409 16.0277C14.7673 16.0174 14.7918 16.0014 14.8163 15.9869C14.8537 15.9645 14.8907 15.9648 14.929 15.984C14.9754 16.0074 15.0227 16.0291 15.069 16.0531C15.1301 16.0847 15.1355 16.1272 15.0864 16.1764C15.0061 16.2565 14.9072 16.2945 14.7959 16.2976C14.7064 16.3002 14.6163 16.3002 14.529 16.2737C14.5238 16.2723 14.5184 16.2717 14.5131 16.2712C14.4504 16.2643 14.4251 16.2977 14.4529 16.3562C14.4832 16.4193 14.5327 16.4661 14.5939 16.5001C14.6463 16.5291 14.704 16.5414 14.7619 16.554C14.9034 16.5844 15.0277 16.6474 15.1052 16.7742L15.1052 16.7743Z" fill="white"/>
<path d="M15.5782 14.6497C15.5677 14.6192 15.5545 14.5896 15.5449 14.5589C15.5266 14.5002 15.552 14.4649 15.6142 14.4626C15.6393 14.4617 15.6642 14.4624 15.6893 14.4624C15.8051 14.4621 15.9161 14.4344 16.0283 14.4102C16.1555 14.3827 16.2818 14.3456 16.4154 14.3573C16.4903 14.3638 16.5295 14.3917 16.5376 14.4663C16.5494 14.5732 16.5515 14.68 16.53 14.7875C16.5122 14.877 16.5011 14.9676 16.4637 15.0521C16.4127 15.1673 16.3569 15.2799 16.2727 15.3748C16.1915 15.4661 16.1037 15.4701 16.0085 15.3918C15.94 15.3354 15.886 15.2653 15.8391 15.1913C15.7311 15.0211 15.6433 14.8408 15.5782 14.6497L15.5782 14.6497Z" fill="white"/>
<path d="M17.4147 19.9529C17.4455 20.0532 17.4947 20.1506 17.4582 20.2606C17.4565 20.2655 17.458 20.2713 17.4574 20.2766C17.4417 20.4391 17.428 20.6017 17.4093 20.7636C17.3936 20.8988 17.3727 21.0334 17.3528 21.1679C17.3282 21.3343 17.3046 21.5007 17.2765 21.6666C17.2563 21.7865 17.2301 21.9053 17.2055 22.0244C17.1778 22.1594 17.1501 22.2944 17.1202 22.4287C17.0993 22.5238 17.0765 22.6185 17.0536 22.7132C16.4483 22.8741 15.8148 22.9654 15.1621 22.9783C15.1663 22.9401 15.1706 22.9019 15.1735 22.8637C15.1855 22.717 15.196 22.5705 15.2077 22.4239C15.2155 22.331 15.2267 22.2384 15.2321 22.1452C15.2481 21.8803 15.2641 21.6154 15.2763 21.3501C15.2848 21.1674 15.2893 20.9842 15.2908 20.8012C15.2913 20.7468 15.3099 20.7082 15.3497 20.6761C15.3652 20.6635 15.3809 20.6516 15.3966 20.6395C15.5849 20.4957 15.7666 20.3436 15.9272 20.1687C15.9729 20.1188 16.0124 20.0624 16.0483 20.0049C16.0808 19.9525 16.0729 19.9158 16.0244 19.8774C15.8662 19.752 15.7629 19.5836 15.6572 19.4167C15.6314 19.3762 15.6438 19.341 15.6867 19.3183C15.7009 19.3107 15.7161 19.3051 15.7309 19.2986C15.9203 19.2177 16.095 19.1133 16.2507 18.9773C16.5005 18.7593 16.6746 18.4926 16.7702 18.1751C16.7887 18.1135 16.8116 18.0514 16.818 17.9883C16.8289 17.8761 16.857 17.7655 16.8501 17.6517C16.85 17.6464 16.8506 17.6407 16.8519 17.6356C16.8623 17.5942 16.896 17.581 16.9287 17.6078C16.945 17.6212 16.9586 17.6389 16.9706 17.6564C17.0178 17.726 17.0406 17.8051 17.0572 17.8863C17.0807 17.9996 17.0805 18.1145 17.0763 18.2293C17.069 18.422 17.0787 18.6137 17.12 18.8019C17.1353 18.872 17.1207 18.9269 17.0879 18.9852C17.0268 19.0935 16.9546 19.1939 16.8768 19.2901C16.7944 19.3921 16.707 19.4898 16.601 19.5687C16.5751 19.5878 16.5501 19.6086 16.527 19.631C16.5196 19.6382 16.5142 19.6552 16.5176 19.6639C16.521 19.6726 16.536 19.681 16.5469 19.6817C16.5622 19.6835 16.5789 19.6801 16.594 19.6755C16.6471 19.6591 16.6996 19.6413 16.7524 19.6239C16.8889 19.5787 17.023 19.5268 17.1426 19.4457C17.2024 19.4049 17.2546 19.3954 17.2766 19.4956C17.2769 19.4973 17.2773 19.4991 17.2778 19.5007C17.3233 19.6515 17.3682 19.8025 17.4145 19.9529L17.4147 19.9529Z" fill="white"/>
<path d="M19.3684 20.1199C19.3424 20.2313 19.3185 20.3436 19.2868 20.4535C19.2251 20.6668 19.1601 20.8793 19.0935 21.091C19.0406 21.2584 18.9842 21.4246 18.9275 21.5908C18.8916 21.696 18.8537 21.8005 18.814 21.9041C18.7966 21.949 18.7793 21.9939 18.7621 22.0389C18.6347 22.1072 18.5053 22.1721 18.3739 22.2336C18.4244 22.0904 18.4706 21.946 18.5182 21.8015C18.5545 21.6909 18.5913 21.5803 18.6243 21.4686C18.6947 21.2299 18.7625 20.9906 18.8314 20.7515C18.8492 20.6893 18.8689 20.6278 18.8829 20.565C18.8956 20.5086 18.8672 20.48 18.8118 20.4921C18.6403 20.5288 18.4641 20.5403 18.2939 20.5852C18.2343 20.601 18.1999 20.5646 18.2201 20.5073C18.2457 20.4357 18.2595 20.3628 18.2679 20.2876C18.2775 20.1985 18.2997 20.1101 18.3015 20.021C18.3057 19.8097 18.3188 19.5977 18.2883 19.3868C18.284 19.3567 18.2794 19.3267 18.2734 19.2968C18.2574 19.218 18.2454 19.138 18.2227 19.0609C18.1997 18.9841 18.1653 18.9105 18.1369 18.8349C18.1311 18.8198 18.1165 18.8035 18.1393 18.782C18.153 18.7905 18.1682 18.7988 18.182 18.8083C18.2469 18.8532 18.2881 18.9191 18.336 18.9797C18.4478 19.1206 18.5289 19.278 18.586 19.4471C18.6245 19.5608 18.6518 19.6773 18.6625 19.7979C18.6699 19.8823 18.6779 19.9655 18.6675 20.05C18.6607 20.1047 18.6862 20.1302 18.7419 20.1279C18.7561 20.1272 18.7702 20.1237 18.7842 20.1207C18.8157 20.1139 18.8469 20.1055 18.8784 20.1001C19.0125 20.0768 19.147 20.0554 19.2811 20.0313C19.3452 20.0199 19.3835 20.0561 19.3685 20.1199L19.3684 20.1199Z" fill="white"/>
<path d="M17.5082 12.7651C17.4782 12.7811 17.4395 12.7269 17.4575 12.7018C17.8429 12.1705 18.0738 11.6737 18.095 11.0103C18.099 10.8907 18.1223 10.7439 18.0995 10.6271C18.08 10.5275 18.0336 10.4244 17.9609 10.3515C17.8901 10.2806 17.9392 10.3281 17.9013 10.3221C17.697 10.2894 17.5145 10.4507 17.3341 10.5899C17.3313 10.6256 17.3287 10.6613 17.3259 10.6969C17.32 10.77 17.3137 10.8433 17.3093 10.9166C17.299 11.0903 17.2902 11.264 17.2804 11.4377C17.2723 11.5772 17.2615 11.7168 17.2553 11.8564C17.247 12.0409 17.2414 12.2255 17.2359 12.4102C17.2324 12.5287 17.2312 12.6471 17.2284 12.7654C17.2272 12.8299 17.2005 12.8554 17.1345 12.8553C16.9875 12.8548 16.8404 12.853 16.6935 12.8528C16.0654 12.8523 15.4373 12.8521 14.8094 12.8521C14.7841 12.8521 14.759 12.8558 14.734 12.855C14.6806 12.8527 14.6552 12.8278 14.6544 12.7739C14.6532 12.6967 14.6548 12.6197 14.6548 12.5424V10.9059H14.656V9.14558C14.656 9.11318 14.6539 9.08092 14.6539 9.04873C14.6541 8.98481 14.6809 8.95728 14.7456 8.95728C14.8534 8.95728 14.961 8.95739 15.0687 8.95959C15.2642 8.96311 15.4599 8.96596 15.6551 8.97314C15.7697 8.97738 15.884 8.98901 15.9983 8.99833C16.1216 9.00857 16.2448 9.0197 16.3681 9.03123C16.4124 9.03546 16.4571 9.04023 16.501 9.04805C16.6295 9.07142 16.7597 9.08921 16.8854 9.12286C17.0287 9.16106 17.1722 9.20445 17.2999 9.28406C17.41 9.35274 17.4761 9.44881 17.4751 9.58515C17.4746 9.66273 17.4638 9.73831 17.4495 9.81418C17.4493 9.8145 17.4493 9.81472 17.4493 9.81483C17.8889 9.74614 18.4472 10.0604 18.5359 10.6239C18.6506 11.3519 18.1514 12.4183 17.5082 12.765L17.5082 12.7651ZM14.4623 12.7788C14.4614 12.8263 14.4422 12.85 14.3954 12.8526C14.3328 12.8563 14.27 12.8573 14.2074 12.8546C14.1606 12.8526 14.1362 12.8263 14.1318 12.7795C14.1284 12.7438 14.1287 12.7078 14.1291 12.6718C14.1296 12.5804 14.1321 12.489 14.1321 12.3973C14.1325 11.3854 14.1325 10.3735 14.1323 9.36156C14.1323 9.26645 14.1303 9.17141 14.1296 9.07626C14.1294 9.06555 14.1293 9.05474 14.1305 9.04407C14.1356 8.99708 14.155 8.97674 14.2011 8.97041C14.2153 8.96848 14.2297 8.96881 14.2442 8.96827C14.2852 8.96688 14.3265 8.96688 14.3674 8.96404C14.4323 8.95981 14.4627 8.98446 14.4635 9.04884C14.4643 9.10429 14.4614 9.15996 14.4614 9.21544C14.4612 9.78249 14.4612 10.3495 14.4612 10.9165V12.6442C14.4612 12.6892 14.4632 12.7341 14.4623 12.7788ZM13.5479 12.8533C13.5105 12.8561 13.4727 12.8529 13.4351 12.8529C13.3148 12.8528 13.1944 12.8529 13.0742 12.8529V12.8563C12.927 12.8563 12.78 12.8564 12.6329 12.8561C12.615 12.8558 12.5969 12.8544 12.5795 12.8504C12.5508 12.8438 12.5319 12.8251 12.5274 12.7954C12.5244 12.7742 12.5228 12.7528 12.5223 12.7313C12.5194 12.5573 12.5189 12.383 12.5136 12.2091C12.5088 12.0584 12.498 11.9081 12.4911 11.7575C12.4842 11.6108 12.4795 11.4637 12.4724 11.3169C12.4673 11.2129 12.461 11.1092 12.4532 11.0052C12.4409 10.8408 12.4287 10.6761 12.413 10.5118C12.4038 10.4174 12.39 10.3234 12.3749 10.2297C12.3439 10.0373 12.308 9.84531 12.2794 9.65259C12.2536 9.47912 12.3298 9.3537 12.4792 9.26979C12.5861 9.20957 12.702 9.17116 12.8189 9.13666C12.8893 9.1156 12.9603 9.096 13.0325 9.08298C13.1011 9.07082 13.1717 9.06712 13.2399 9.0886C13.3518 9.12375 13.4198 9.20239 13.4553 9.31116C13.4843 9.40008 13.4966 9.49139 13.5 9.58569C13.5111 9.88148 13.5293 10.1771 13.5414 10.4728C13.5556 10.8277 13.5667 11.1829 13.5785 11.5379C13.5865 11.7817 13.5926 12.0257 13.6011 12.2694C13.6068 12.4343 13.6149 12.5993 13.6229 12.764C13.6255 12.8209 13.6049 12.8491 13.5479 12.8533ZM14.9996 7.01999C10.5923 7.01999 7.01953 10.5927 7.01953 14.9999C7.01953 16.744 7.57907 18.3572 8.52842 19.6701C8.62016 19.551 8.7221 19.4403 8.83439 19.3378C9.08107 19.1131 9.41848 18.9585 9.72274 18.8272C10.036 18.6919 10.3618 18.587 10.693 18.5054C10.8475 18.4673 11.003 18.4328 11.1587 18.4C11.2601 18.3788 11.3629 18.3638 11.4651 18.3456C11.4809 18.3429 11.4967 18.339 11.5121 18.3339C11.5503 18.3212 11.5686 18.2953 11.5619 18.2561C11.548 18.1732 11.531 18.0908 11.5161 18.008C11.5036 17.9393 11.4926 17.8702 11.4804 17.8016C11.4608 17.6905 11.4412 17.5796 11.4206 17.4686C11.4081 17.4012 11.4185 17.3793 11.4836 17.3528C11.5051 17.3441 11.5282 17.3399 11.5505 17.3332C11.6346 17.3081 11.7185 17.2827 11.8025 17.2578C11.914 17.2247 12.0259 17.1928 12.137 17.1589C12.2158 17.1348 12.2937 17.1081 12.3725 17.0837C12.5536 17.0277 12.7349 16.9719 12.9166 16.9171C12.9833 16.897 13.051 16.88 13.1182 16.8613C13.1284 16.8585 13.1385 16.8543 13.1482 16.8497C13.1901 16.8295 13.2007 16.7983 13.1776 16.7572C13.1662 16.7369 13.1499 16.7197 13.1377 16.7C13.0297 16.5253 12.9434 16.3401 12.8758 16.1464C12.8416 16.0483 12.8073 15.95 12.7808 15.8497C12.7448 15.715 12.7123 15.579 12.6855 15.4421C12.6675 15.351 12.6618 15.2575 12.6508 15.1649C12.6493 15.1525 12.6483 15.1399 12.6472 15.1274C12.6418 15.0698 12.6179 15.0251 12.573 14.9848C12.4122 14.8404 12.3313 14.6547 12.3063 14.4424C12.3043 14.4263 12.3017 14.4103 12.3013 14.3943C12.3003 14.3347 12.2657 14.3039 12.213 14.2866C12.1144 14.2545 12.0148 14.2245 11.9177 14.188C11.8087 14.1471 11.7002 14.1041 11.5949 14.0547C11.4734 13.9976 11.3543 13.9347 11.2367 13.8697C11.1232 13.8074 11.0163 13.7342 10.9315 13.6346C10.9007 13.598 10.8745 13.5563 10.852 13.5138C10.8292 13.471 10.8345 13.4265 10.8665 13.3883C10.9195 13.3249 10.989 13.2912 11.0689 13.275C11.2676 13.235 11.4685 13.2397 11.6692 13.2459C11.7463 13.2482 11.823 13.2575 11.8997 13.2656C12.0136 13.2777 12.1278 13.2893 12.2413 13.305C12.3548 13.3207 12.4677 13.3411 12.5807 13.3593C12.6498 13.3705 12.7189 13.3802 12.7877 13.3925C12.9163 13.4156 13.0445 13.4409 13.1731 13.4637C13.2171 13.4714 13.2619 13.4746 13.3063 13.4797C13.4364 13.4947 13.566 13.513 13.6962 13.5238C13.8661 13.5379 14.0365 13.5444 14.2065 13.5569C14.495 13.5781 14.784 13.5739 15.0729 13.572C15.3438 13.5702 15.6145 13.5604 15.8846 13.5337C15.9792 13.5244 16.0746 13.5234 16.1687 13.5112C16.3427 13.4885 16.5184 13.4794 16.6906 13.4416C16.7603 13.4263 16.832 13.4196 16.9025 13.4078C17.1107 13.3731 17.3184 13.3335 17.5274 13.3037C17.7011 13.2789 17.8761 13.2578 18.0513 13.2483C18.2301 13.2388 18.4102 13.2311 18.5886 13.2605C18.6801 13.2756 18.7738 13.286 18.8498 13.349C18.9122 13.4005 18.9305 13.4637 18.8943 13.5354C18.876 13.5716 18.8508 13.6061 18.8221 13.635C18.7766 13.6803 18.7275 13.723 18.6766 13.7627C18.5373 13.8716 18.3826 13.9552 18.2215 14.0266C18.1134 14.0747 18.0049 14.1219 17.8947 14.1649C17.798 14.2025 17.6989 14.2335 17.601 14.2679C17.5722 14.278 17.5441 14.2896 17.5158 14.3008C17.4703 14.3186 17.4487 14.353 17.4483 14.4007C17.447 14.5371 17.401 14.6603 17.3412 14.7804C17.303 14.857 17.2523 14.9248 17.1859 14.9777C17.1268 15.0248 17.1076 15.0854 17.1018 15.156C17.0893 15.3061 17.0689 15.4549 17.0329 15.6015C17.0117 15.6882 16.9952 15.7766 16.9698 15.8622C16.8929 16.1202 16.802 16.3731 16.6709 16.6097C16.6475 16.6519 16.6193 16.6914 16.5932 16.7319C16.5862 16.7425 16.5778 16.752 16.5719 16.7631C16.549 16.8064 16.5609 16.8357 16.607 16.8498C16.7798 16.9028 16.9529 16.9557 17.1258 17.0082C17.3483 17.0759 17.5711 17.1434 17.7937 17.2109C17.9377 17.2543 18.0818 17.2969 18.2259 17.3403C18.2465 17.3467 18.267 17.3532 18.2864 17.3622C18.3306 17.3828 18.3429 17.4055 18.3346 17.4524C18.3133 17.5721 18.2909 17.6918 18.2698 17.8117C18.2507 17.9209 18.2332 18.0306 18.2141 18.1396C18.2079 18.175 18.1985 18.2097 18.1915 18.2449C18.1828 18.2884 18.1983 18.3203 18.2411 18.3327C18.2837 18.3449 18.3288 18.349 18.3725 18.358C18.5073 18.3857 18.6424 18.4137 18.7771 18.4427C18.8767 18.4642 18.9765 18.4851 19.0752 18.51C19.3271 18.5737 19.5759 18.6465 19.8192 18.7387C20.1574 18.867 20.4667 19.0422 20.7645 19.2477C20.9537 19.3781 21.1532 19.5114 21.3327 19.6607C21.3628 19.6858 21.3924 19.7116 21.4215 19.7379C22.4007 18.4129 22.9796 16.7741 22.9796 15C22.9796 10.5928 19.4068 7.02006 14.9996 7.02006V7.01999Z" fill="white"/>
<path d="M24.4513 9.45779C24.5518 9.51122 24.6611 9.55824 24.7794 9.59907C24.8976 9.64001 25.0192 9.65474 25.1443 9.64353C25.2693 9.63197 25.3923 9.59075 25.5129 9.51929C25.6709 9.42585 25.7789 9.2835 25.8373 9.09214C25.8955 8.90088 25.8742 8.72004 25.7733 8.54984C25.6799 8.39184 25.5484 8.2792 25.3793 8.21222L23.8047 9.14428C23.8921 9.17203 23.9966 9.21763 24.1181 9.28165C24.2396 9.34571 24.3508 9.40444 24.4512 9.45779H24.4513Z" fill="white"/>
<path d="M21.5572 24.0915C21.378 23.8807 21.1926 23.7421 21.0008 23.6754C20.8094 23.6088 20.6433 23.6219 20.5031 23.7142C20.3561 23.8109 20.2942 23.9511 20.3172 24.1349C20.3399 24.3185 20.4382 24.5117 20.6119 24.7141C20.7887 24.929 20.9733 25.0699 21.1656 25.1371C21.3577 25.2047 21.5247 25.1915 21.6668 25.098C21.8136 25.0013 21.8758 24.8604 21.8531 24.6754C21.8306 24.4904 21.7319 24.2958 21.5573 24.0915L21.5572 24.0915Z" fill="white"/>
<path d="M26.6603 18.6503C26.696 18.5044 26.6705 18.421 26.5842 18.3998L24.9148 17.9914C24.8284 17.9702 24.7673 18.0325 24.7316 18.1784L24.7029 18.1716L25.1 16.5479C25.2018 16.6888 25.3091 16.77 25.4219 16.7914C25.4054 16.8585 25.3769 16.9173 25.3361 16.9673C25.2955 17.0172 25.2543 17.0564 25.2126 17.085C25.1712 17.1135 25.1285 17.1595 25.0844 17.223C25.0403 17.2864 25.0076 17.3622 24.986 17.4505L24.9627 17.5456L25.8724 17.768L25.7501 17.607C25.6589 17.4891 25.6309 17.3582 25.6661 17.2143L25.7345 16.9351C25.7982 17.0911 25.8906 17.1989 26.0121 17.2592C25.9774 17.2933 25.9492 17.3536 25.9282 17.44C25.8967 17.5686 25.9155 17.6869 25.9847 17.7955L26.7474 17.9822L26.8854 17.418C26.9122 17.3085 26.8999 17.2182 26.8481 17.1466C26.7965 17.0748 26.7106 17.002 26.5904 16.9279L26.6209 16.8774L27.0247 17.1226L27.0594 17.1433L26.689 18.6574L26.6603 18.6504V18.6503ZM25.7972 20.8158L25.77 20.8038C25.8301 20.6664 25.8197 20.5798 25.7383 20.544L24.164 19.8543C24.0826 19.8185 24.0118 19.8696 23.9515 20.007L23.9243 19.9952L24.5951 18.4643C24.6714 18.6207 24.7628 18.719 24.8704 18.7596C24.8424 18.8229 24.8043 18.8758 24.7555 18.918C24.7068 18.9602 24.6595 18.9919 24.6137 19.0128C24.5679 19.0338 24.5179 19.0716 24.4635 19.1266C24.4092 19.1816 24.3639 19.2505 24.3274 19.3338L24.2882 19.4234L25.1458 19.7992L25.053 19.6196C24.9837 19.4876 24.9786 19.3538 25.038 19.2183L25.1534 18.9549C25.1892 19.1195 25.2619 19.2417 25.371 19.3221C25.331 19.3497 25.2931 19.4042 25.2572 19.4857C25.2041 19.6069 25.2023 19.727 25.2516 19.8455L25.9709 20.1607L26.2039 19.6289C26.2492 19.5257 26.2526 19.4344 26.214 19.355C26.1756 19.2756 26.1034 19.1891 25.9979 19.0952L26.0367 19.0507L26.3922 19.3619L26.4229 19.3882L25.7972 20.8159V20.8158ZM24.4249 22.8164L24.4011 22.7989C24.4895 22.6778 24.4979 22.5908 24.4262 22.5384L23.0378 21.5253C22.9661 21.4729 22.886 21.5072 22.7974 21.6287L22.7734 21.6112L23.7587 20.2611C23.7993 20.43 23.8675 20.5459 23.9636 20.6088C23.9229 20.6644 23.8742 20.7078 23.8175 20.7385C23.7607 20.7693 23.7078 20.7901 23.6586 20.8005C23.6094 20.8111 23.5522 20.8374 23.4874 20.8794C23.4225 20.9213 23.3633 20.9788 23.3097 21.0523L23.2522 21.1312L24.0085 21.6833L23.9566 21.488C23.9174 21.3441 23.9414 21.2124 24.0287 21.0928L24.1979 20.8605C24.1975 21.029 24.2419 21.164 24.3313 21.2661C24.2861 21.2843 24.2374 21.3294 24.1849 21.4013C24.1069 21.5082 24.0792 21.625 24.1019 21.7514L24.6883 22.1796C24.7599 22.2319 24.8402 22.1976 24.9288 22.0761L24.9525 22.0936L24.4249 22.8164L24.4249 22.8164ZM22.8946 24.3715L22.8738 24.3503C22.9811 24.2455 23.004 24.1612 22.9416 24.0978L21.741 22.868C21.6789 22.8044 21.594 22.825 21.4867 22.9299L21.466 22.9086L22.6618 21.741C22.6738 21.9143 22.7219 22.0399 22.806 22.1177C22.7564 22.1663 22.7015 22.2008 22.6404 22.2216C22.5791 22.2426 22.5236 22.2543 22.4733 22.2564C22.423 22.2585 22.3624 22.2749 22.2914 22.3056C22.2206 22.3361 22.1524 22.3832 22.0875 22.4467L22.0175 22.515L22.6717 23.185L22.6533 22.9835C22.6382 22.8353 22.6838 22.7094 22.7898 22.606L22.9954 22.4051C22.9669 22.571 22.9882 22.7117 23.0595 22.8271C23.0119 22.8377 22.9563 22.8739 22.8927 22.9362C22.7981 23.0286 22.7513 23.139 22.7525 23.2677L23.2596 23.7871C23.3219 23.8507 23.4066 23.8302 23.5139 23.7252L23.5349 23.7463L22.8945 24.3715H22.8946ZM22.1091 24.6435C22.0544 24.909 21.9018 25.1242 21.651 25.2896C21.3903 25.4611 21.1307 25.5151 20.8723 25.4514C20.6136 25.3875 20.4009 25.2234 20.2342 24.9595C20.0609 24.693 20.0018 24.4273 20.0569 24.1626C20.112 23.8981 20.2642 23.6835 20.5133 23.5195C20.774 23.3479 21.0333 23.2935 21.2914 23.3565C21.5492 23.4194 21.762 23.5818 21.9294 23.8427C22.1037 24.1111 22.1636 24.3781 22.1091 24.6435H22.1091ZM19.9195 26.1519C19.8453 26.177 19.7917 26.2027 19.7586 26.2289C19.7253 26.2554 19.6792 26.2884 19.6202 26.3278C19.5612 26.3671 19.4946 26.4008 19.421 26.429C19.1938 26.5154 18.9734 26.5075 18.7601 26.4048C18.5464 26.3022 18.3821 26.0996 18.2668 25.7968C18.2211 25.6767 18.194 25.5513 18.1854 25.4202C18.1766 25.2893 18.1875 25.1596 18.2177 25.0305C18.2479 24.9017 18.3113 24.7826 18.4078 24.6728C18.5046 24.563 18.6287 24.4794 18.78 24.4217C18.8557 24.393 18.9389 24.3701 19.0299 24.3534C19.1208 24.3368 19.1881 24.3222 19.2321 24.3097C19.2761 24.2973 19.3551 24.2555 19.4697 24.1844C19.4412 24.2648 19.4213 24.3259 19.4093 24.3675C19.3978 24.4088 19.3895 24.4591 19.3843 24.518C19.3793 24.577 19.3856 24.6265 19.4028 24.6665C19.3522 24.6836 19.3004 24.6849 19.2473 24.6701C19.1941 24.6555 19.1472 24.6364 19.1065 24.6127C19.0659 24.5892 19.0155 24.5725 18.9557 24.5624C18.8959 24.5523 18.8347 24.5594 18.7719 24.5834C18.639 24.6338 18.5632 24.7531 18.5449 24.9406C18.5267 25.1286 18.5619 25.3387 18.6504 25.5713C18.7368 25.7983 18.8649 25.9832 19.0343 26.126C19.2039 26.2684 19.3496 26.3165 19.4715 26.2702C19.5139 26.254 19.5531 26.2259 19.5885 26.1859C19.6239 26.1459 19.6552 26.1013 19.6817 26.0519C19.7084 26.0027 19.7386 25.9528 19.772 25.902C19.8055 25.8512 19.8501 25.802 19.906 25.7543C19.9619 25.7066 20.0266 25.6686 20.1005 25.6405C20.112 25.6762 20.1154 25.7188 20.111 25.7681C20.1064 25.8175 20.1003 25.8594 20.0925 25.8941C20.0845 25.9288 20.0883 25.9653 20.1042 26.0038C20.1197 26.0423 20.1517 26.0745 20.1996 26.1006C20.087 26.1097 19.9934 26.1268 19.9196 26.1518L19.9195 26.1519ZM17.3363 27.232L17.185 27.2651L17.289 24.78L17.4404 24.7467L17.3363 27.232ZM15.6004 27.2012L15.5992 27.1718C15.7435 27.1702 15.7982 27.1276 15.7633 27.044L15.6556 26.7811L15.5409 26.652C15.489 26.5908 15.4416 26.5475 15.398 26.5225C15.3545 26.4974 15.2992 26.4863 15.2323 26.4888C15.1038 26.4937 15.0195 26.5098 14.9789 26.537C14.9648 26.4763 14.9306 26.4125 14.8768 26.3452L14.6383 27.0898C14.6224 27.1399 14.6246 27.1729 14.645 27.1887C14.6653 27.2049 14.6982 27.2119 14.7436 27.2102L14.7449 27.2398L14.2443 27.2589L14.2431 27.2294C14.4012 27.2233 14.4933 27.1783 14.5198 27.0943L14.7903 26.2565C14.7658 26.2337 14.7413 26.215 14.7169 26.2L14.8119 26.1963L15.0743 25.3827L15.0449 25.3097C15.1149 25.2795 15.1768 25.1941 15.2308 25.0536L15.3877 25.0475L16.2076 27.03C16.2404 27.1116 16.313 27.1504 16.4256 27.1462L16.4267 27.1759L15.6003 27.2012H15.6004ZM13.9049 25.5113C13.8367 25.5001 13.7761 25.4759 13.7232 25.4391C13.6701 25.4023 13.628 25.3641 13.5964 25.325C13.5648 25.2856 13.516 25.2465 13.4494 25.2073C13.3827 25.1681 13.3045 25.1411 13.215 25.1263L13.1184 25.1103L12.965 26.0341L13.1165 25.9C13.2271 25.8002 13.3557 25.7624 13.5018 25.7868L13.7854 25.8338C13.6347 25.909 13.5338 26.0095 13.4828 26.1351C13.4462 26.103 13.3839 26.0796 13.2965 26.0652C13.1657 26.0434 13.0489 26.0711 12.9461 26.1482L12.8173 26.9227L13.3902 27.0179C13.5014 27.0363 13.5906 27.0172 13.6583 26.9603C13.7257 26.9034 13.7918 26.8122 13.8567 26.6869L13.9095 26.7136L13.6954 27.1347L13.6774 27.1707L12.1396 26.9153L12.1445 26.886C12.2925 26.9106 12.374 26.8791 12.3884 26.7912L12.6702 25.0958C12.6848 25.0081 12.618 24.9521 12.47 24.9274L12.4747 24.8982L14.1235 25.172C13.9908 25.2842 13.9177 25.3972 13.9049 25.5112V25.5113ZM11.9964 24.8429C11.9687 24.8715 11.9482 24.901 11.9354 24.9321C11.9224 24.9633 11.9089 25.0004 11.8945 25.0435C11.8392 25.0223 11.7574 24.9543 11.6491 24.8391C11.5407 24.7239 11.4432 24.6497 11.3564 24.6166L10.7236 26.278C10.692 26.3611 10.7463 26.4294 10.8866 26.4828L10.8759 26.5106L10.0674 26.2027L10.078 26.1748C10.2183 26.2283 10.3043 26.2134 10.3358 26.1304L10.9687 24.4688C10.882 24.4357 10.7597 24.4262 10.6023 24.4402C10.4447 24.4543 10.3384 24.4508 10.2829 24.4296C10.3009 24.3878 10.3154 24.3511 10.3265 24.3193C10.3375 24.2877 10.3421 24.2518 10.3405 24.2121C10.3384 24.1722 10.3285 24.1267 10.3099 24.0753C10.3358 24.0852 10.376 24.1058 10.4307 24.1372C10.4854 24.1686 10.5248 24.1888 10.5487 24.1978L11.8503 24.6936C11.8742 24.7027 11.917 24.7138 11.9787 24.7268C12.0405 24.7397 12.0842 24.751 12.11 24.7609C12.0619 24.7869 12.0243 24.8143 11.9963 24.8429L11.9964 24.8429ZM9.34149 23.6672C9.30023 23.6792 9.25292 23.6983 9.2002 23.7251C9.14728 23.7518 9.10854 23.783 9.08368 23.8187C9.04249 23.7846 9.01414 23.7411 8.99877 23.6882C8.98323 23.6352 8.97498 23.5853 8.9737 23.5384C8.97256 23.4912 8.96039 23.4396 8.93738 23.3835C8.91465 23.3272 8.87656 23.2787 8.8231 23.238C8.71038 23.1512 8.56913 23.1495 8.39975 23.2325C8.23022 23.3153 8.06988 23.4555 7.91842 23.6531C7.77038 23.8458 7.68028 24.0519 7.64777 24.2709C7.6153 24.49 7.65094 24.6393 7.75445 24.7186C7.79044 24.7465 7.8348 24.7647 7.88751 24.7742C7.94012 24.7833 7.9944 24.7863 8.05028 24.7831C8.10634 24.7802 8.16456 24.7794 8.22542 24.7815C8.28625 24.7831 8.35159 24.7952 8.42162 24.8179C8.49148 24.8403 8.55775 24.8755 8.62042 24.9237C8.59606 24.9523 8.5617 24.9777 8.51745 24.9996C8.47309 25.0216 8.43418 25.0383 8.4005 25.0499C8.36674 25.0615 8.33775 25.0839 8.31321 25.1174C8.28863 25.151 8.27796 25.1951 8.28091 25.2495C8.21379 25.1584 8.15041 25.0878 8.09019 25.0381C8.03018 24.9882 7.98014 24.956 7.94026 24.9416C7.90025 24.9272 7.84807 24.9051 7.78361 24.8756C7.71906 24.846 7.65553 24.8073 7.59278 24.7591C7.39993 24.6113 7.29115 24.4196 7.26658 24.1838C7.24182 23.9482 7.32797 23.7019 7.52534 23.445C7.60335 23.3431 7.69597 23.2541 7.80286 23.1781C7.90974 23.1019 8.02595 23.0428 8.15158 23.001C8.277 22.959 8.41191 22.9505 8.55608 22.975C8.7001 22.9998 8.83665 23.0615 8.96513 23.16C9.02922 23.2092 9.09243 23.2684 9.15432 23.337C9.21603 23.4056 9.26387 23.4553 9.29752 23.486C9.33131 23.5169 9.40836 23.5624 9.52901 23.6225C9.44538 23.6405 9.38292 23.6555 9.34145 23.6672L9.34149 23.6672ZM6.64984 23.9415L6.04533 23.3224L6.0666 23.3015C6.17129 23.4091 6.25562 23.4318 6.31911 23.3697L7.54889 22.1688C7.61249 22.1066 7.59175 22.0219 7.48696 21.9145L7.50813 21.8937L7.67164 22.0614C7.80001 22.1872 7.92988 22.2636 8.06088 22.2902C8.00468 22.3175 7.94108 22.3656 7.87058 22.4346L6.60904 23.6663C6.54533 23.7285 6.56596 23.8132 6.67097 23.9208L6.6498 23.9415H6.64984ZM5.72243 23.021L5.57212 22.8151C5.48483 22.6955 5.45919 22.5832 5.49539 22.4786C5.47032 22.4578 5.40555 22.4193 5.3014 22.3634C5.19672 22.3075 5.11619 22.2405 5.05903 22.1623C4.91575 21.966 4.86546 21.7513 4.90832 21.5186C4.95107 21.2854 5.10328 21.0734 5.365 20.8824C5.46872 20.8067 5.5825 20.7474 5.70664 20.7046C5.83067 20.6617 5.95872 20.6379 6.09104 20.6331C6.22332 20.6284 6.35511 20.6582 6.48632 20.7226C6.61779 20.7867 6.73111 20.8845 6.82658 21.0153C6.87439 21.0807 6.91832 21.1551 6.95833 21.2384C6.99831 21.3216 7.03018 21.3828 7.05359 21.4217C7.0772 21.461 7.13845 21.5264 7.23723 21.6181C7.15204 21.6118 7.08777 21.6086 7.0448 21.6081C7.00173 21.6078 6.95093 21.6129 6.89274 21.6239C6.83451 21.6343 6.78849 21.6534 6.75463 21.6806C6.72478 21.6363 6.70995 21.5867 6.70995 21.5316C6.71016 21.4763 6.71618 21.4261 6.72816 21.3805C6.74033 21.335 6.74338 21.2821 6.73716 21.2218C6.73101 21.1615 6.70807 21.1042 6.66858 21.05C6.58475 20.9349 6.44983 20.8935 6.26387 20.9252C6.07781 20.957 5.88445 21.0463 5.68338 21.193C5.48707 21.3363 5.34248 21.5084 5.24968 21.7095C5.15652 21.9108 5.14863 22.0639 5.22556 22.1692C5.24523 22.1963 5.27084 22.2187 5.30207 22.2362C5.33309 22.2539 5.36062 22.2663 5.3841 22.2736C5.40772 22.2806 5.44421 22.2896 5.49355 22.3C5.54267 22.3106 5.57756 22.3182 5.59823 22.3228C5.60975 22.3119 5.62914 22.2965 5.65635 22.2768L5.97946 22.0409C6.05131 21.9886 6.04277 21.9017 5.95445 21.7804L5.97818 21.7629L6.11626 21.952C6.22549 22.0949 6.34298 22.189 6.4689 22.2341C6.40932 22.2529 6.33956 22.2916 6.25989 22.3498L5.72119 22.7429C5.64955 22.7953 5.65791 22.8821 5.74637 23.0035L5.72247 23.021L5.72243 23.021ZM4.42255 21.1692L4.39566 21.1818L4.05088 20.4303L4.07777 20.4178C4.13522 20.55 4.1959 20.5839 4.25939 20.5194L4.45961 20.3177L4.53392 20.1619C4.57023 20.0905 4.59136 20.0297 4.59773 19.9799C4.60385 19.9303 4.59275 19.8748 4.56418 19.814C4.50987 19.6977 4.46224 19.6263 4.4213 19.5996C4.47178 19.5629 4.51752 19.5065 4.55846 19.4309L3.77963 19.5005C3.72745 19.5054 3.69782 19.5204 3.69103 19.5452C3.68416 19.5703 3.69039 19.6034 3.70966 19.6445L3.68277 19.657L3.47057 19.2034L3.49735 19.1909C3.56433 19.3341 3.6418 19.4015 3.7293 19.3932L4.60648 19.3168C4.61779 19.2853 4.62572 19.2554 4.62995 19.2272L4.67015 19.3131L5.522 19.2387L5.57767 19.1833C5.63269 19.2359 5.73556 19.2599 5.88595 19.2549L5.95253 19.3972L4.44496 20.9232C4.38232 20.9852 4.37492 21.0673 4.42251 21.1692L4.42255 21.1692ZM3.36244 18.8681L3.3333 18.8744L3.14888 18.0291L3.17797 18.0228C3.20991 18.1694 3.26928 18.2333 3.35607 18.2143L4.88769 17.8801L3.05785 17.6122L3.03267 17.4963L4.51254 16.5364L3.05935 16.8534C2.97234 16.8726 2.94496 16.9553 2.9769 17.102L2.94802 17.1085L2.82662 16.5524L2.85575 16.5461C2.88758 16.6929 2.94706 16.7567 3.03384 16.7378L4.71311 16.3712C4.80012 16.3524 4.8274 16.2695 4.79546 16.1227L4.82445 16.1164L4.96078 16.7418L3.65901 17.587L5.19465 17.813L5.33117 18.4383L5.30207 18.4447C5.27013 18.2979 5.21077 18.2341 5.12398 18.2532L3.44471 18.6196C3.35792 18.6386 3.33042 18.7215 3.36247 18.868L3.36244 18.8681ZM3.51546 9.28484C3.58912 9.13677 3.66901 9.01074 3.75494 8.90692C3.84077 8.80277 3.91106 8.72615 3.96566 8.67707C4.02036 8.62795 4.07489 8.54055 4.12938 8.41489C4.18388 8.28936 4.22855 8.12261 4.26341 7.91471C4.2797 7.94711 4.30435 7.99452 4.33736 8.05716C4.37051 8.11991 4.39274 8.16206 4.40405 8.18375C4.41536 8.20552 4.43443 8.23793 4.461 8.28132C4.48768 8.32482 4.50937 8.35573 4.5263 8.37416C4.54323 8.39269 4.56671 8.41649 4.59645 8.44537C4.62629 8.47439 4.65773 8.49798 4.69085 8.51629C4.72368 8.53479 4.76124 8.55439 4.80304 8.57523C4.73741 8.69122 4.6397 8.78434 4.51037 8.85463C4.38093 8.92502 4.2548 8.99677 4.1317 9.07011C4.00873 9.14377 3.91771 9.24006 3.8582 9.35915C3.79578 9.48478 3.77458 9.60604 3.79492 9.72249C3.81545 9.83923 3.88506 9.92726 4.00425 9.98656C4.10744 10.0379 4.24175 10.0303 4.40736 9.96401C4.57301 9.89788 4.74794 9.80487 4.93176 9.68546C5.1159 9.56609 5.30481 9.44893 5.49849 9.33453C5.69209 9.21982 5.89263 9.13979 6.10018 9.09419C6.30773 9.04887 6.49209 9.06613 6.65314 9.14623C6.95268 9.29544 7.13216 9.52437 7.19145 9.83322C7.25093 10.1422 7.20191 10.4544 7.04476 10.77C6.98234 10.8956 6.91088 10.997 6.83056 11.0735C6.75036 11.15 6.68313 11.2083 6.62939 11.2475C6.5755 11.2872 6.51773 11.379 6.45613 11.523C6.39441 11.6672 6.34127 11.873 6.29663 12.14C6.19174 11.9391 6.09705 11.7885 6.01218 11.6881C5.92749 11.5878 5.81353 11.5039 5.67032 11.4365C5.72482 11.3431 5.80474 11.2613 5.91003 11.1909C6.01514 11.1209 6.11694 11.068 6.21504 11.0324C6.31303 10.9967 6.40956 10.9503 6.50429 10.893C6.59922 10.8356 6.66513 10.77 6.70188 10.696C6.76601 10.5671 6.7929 10.4266 6.78208 10.2745C6.7712 10.1225 6.69341 10.0104 6.54843 9.93829C6.43891 9.88369 6.31538 9.87345 6.1778 9.90759C6.04039 9.9416 5.90757 10.0044 5.77984 10.0953C5.65222 10.1866 5.5103 10.2837 5.3544 10.3871C5.19853 10.4902 5.04939 10.584 4.90729 10.6679C4.76494 10.7518 4.6106 10.8036 4.44403 10.8232C4.27757 10.8428 4.11861 10.815 3.96715 10.7397C3.67086 10.5922 3.48729 10.3813 3.41672 10.107C3.34625 9.83297 3.37915 9.55887 3.51549 9.28488L3.51546 9.28484ZM7.76078 4.20855L7.99593 4.04557L11.198 6.28449C11.3285 6.37793 11.4782 6.3664 11.6465 6.24934L11.6775 6.29359L10.4339 7.1431L10.4032 7.09885C10.623 6.95504 10.6651 6.83589 10.5297 6.74166L10.1065 6.44405L9.80407 6.35833C9.66449 6.31493 9.54893 6.29544 9.45776 6.2996C9.36653 6.30384 9.27056 6.34065 9.17001 6.4104C8.97782 6.54375 8.86414 6.65117 8.82868 6.73266C8.7474 6.65327 8.63237 6.58875 8.48369 6.53849L8.84764 7.91517C8.87229 8.00758 8.90807 8.05606 8.95502 8.06068C9.00212 8.06524 9.0596 8.04393 9.12757 7.99687L9.15834 8.04109L8.40893 8.56118L8.37802 8.51683C8.61455 8.35278 8.71191 8.19318 8.67011 8.03813L8.26401 6.48716C8.20412 6.47649 8.14799 6.4713 8.09616 6.47233L8.23798 6.37391L7.84319 4.86736L7.7266 4.78431C7.80414 4.66896 7.8157 4.47717 7.76067 4.20858L7.76078 4.20855ZM12.7083 2.38216C12.848 2.36968 12.987 2.33845 13.1253 2.28808C13.2636 2.23793 13.3583 2.17621 13.4097 2.10287C13.4481 2.21146 13.5309 2.34873 13.6576 2.51448L14.689 3.99413L15.2049 2.97272C15.2605 2.86658 15.2652 2.74878 15.2193 2.61902C15.1734 2.48958 15.0779 2.38056 14.9329 2.29231C15.2899 2.24618 15.6245 2.10806 15.9364 1.87786L14.75 4.19435L14.8779 5.6299C14.8924 5.79132 15.0358 5.85975 15.3081 5.83553L15.3129 5.8892L13.743 6.02899L13.7383 5.97525C14.0106 5.95113 14.1397 5.85829 14.1253 5.69692L13.995 4.23473L12.8657 2.62827C12.7747 2.49926 12.6252 2.4438 12.4175 2.4623L12.4126 2.40845L12.7083 2.3822L12.7083 2.38216ZM18.1957 5.31323L19.2562 3.18237C19.3282 3.03739 19.2419 2.90393 18.9971 2.78203L19.021 2.73377L19.4028 2.92374C19.5333 2.98457 19.6803 3.03465 19.8436 3.07381C20.0071 3.11276 20.145 3.12428 20.2577 3.10788C20.1775 3.18863 20.0972 3.30949 20.0171 3.47048L18.9902 5.5339C18.926 5.6627 18.8843 5.77858 18.8654 5.88166C18.8461 5.98478 18.8432 6.06751 18.8562 6.13026C18.8691 6.19314 18.8975 6.25134 18.941 6.30508C18.9844 6.35904 19.0239 6.39664 19.0593 6.41833C19.0948 6.44003 19.1399 6.46436 19.1948 6.49168C19.372 6.57982 19.5902 6.54905 19.85 6.39874C20.1096 6.24856 20.2899 6.07203 20.391 5.86907L21.2374 4.1681C21.3094 4.02312 21.2231 3.88977 20.9783 3.76805L21.0022 3.71957L22.4617 4.44594L22.4376 4.49431C22.1928 4.37238 22.0343 4.38405 21.9621 4.52881L20.5675 7.33147C20.497 7.4734 20.5823 7.60845 20.8241 7.73672L20.7999 7.78499L20.4207 7.59003C20.2127 7.48282 20.0724 7.33645 19.9998 7.15167C19.927 6.96667 19.9428 6.76951 20.047 6.56015L20.1049 6.44405C19.8942 6.62492 19.6525 6.75077 19.38 6.82208C19.1074 6.89329 18.8422 6.86495 18.5845 6.73679C18.3556 6.6229 18.192 6.44099 18.0935 6.19069C17.9949 5.94078 18.0288 5.64829 18.1956 5.31323H18.1957ZM23.3465 15.0001C23.3465 19.6101 19.6094 23.3472 14.9994 23.3472C10.3895 23.3472 6.65233 19.6101 6.65233 15.0001C6.65233 10.3901 10.3895 6.65299 14.9994 6.65299C19.6094 6.65299 23.3465 10.3901 23.3465 15.0001ZM25.0958 7.56453C25.2351 7.48197 25.2351 7.32312 25.096 7.08775L25.1423 7.06026L26.0386 8.57452C26.2201 8.88113 26.3041 9.18571 26.2909 9.4883C26.2777 9.791 26.1457 10.0165 25.8949 10.1649C25.7089 10.275 25.514 10.2951 25.3099 10.2257C25.1057 10.1562 24.8623 10.0275 24.5795 9.83948C24.5917 9.85324 24.6062 9.87387 24.6226 9.90172C24.7453 10.1091 24.7954 10.319 24.7726 10.5312C24.7495 10.7433 24.6204 10.9191 24.3853 11.0586L24.0462 11.2591C23.7085 11.459 23.5812 11.6284 23.6636 11.7678C23.6928 11.8175 23.7345 11.8504 23.7878 11.8668C23.8415 11.883 23.8933 11.8805 23.9434 11.8594C23.9202 11.9189 23.9156 11.9676 23.9297 12.0054C23.7545 11.992 23.6072 11.8848 23.4881 11.6835C23.3673 11.479 23.3162 11.2781 23.3354 11.0809C23.3546 10.8834 23.4647 10.7252 23.6658 10.6061L23.9029 10.4659C24.1101 10.3431 24.2257 10.1952 24.249 10.0226C24.2722 9.84997 24.2241 9.68393 24.1047 9.52455C23.8691 9.3881 23.6746 9.3171 23.5208 9.31191L22.7593 9.76265C22.6198 9.84531 22.6198 10.0043 22.7593 10.2395L22.7126 10.267L21.9374 8.95714L21.9839 8.92965C22.1231 9.16501 22.2625 9.24152 22.4019 9.159L25.0959 7.56463L25.0958 7.56453ZM14.9994 1.40286C7.48985 1.40286 1.40234 7.49061 1.40234 15C1.40234 22.5094 7.48988 28.5971 14.9994 28.5971C22.509 28.5971 28.5966 22.5094 28.5966 15C28.5966 7.49061 22.509 1.40286 14.9994 1.40286Z" fill="white"/>
<path d="M8.61649 6.1123C8.7168 6.04265 8.8128 6.00552 8.90404 6.00139C8.99534 5.99716 9.1107 6.01697 9.2502 6.06012L9.77406 6.20912L8.08594 5.035L8.40798 6.25685L8.61649 6.1123Z" fill="white"/>
<path d="M14.9258 26.1922L15.065 26.1868C15.1322 26.1842 15.1875 26.1955 15.231 26.2206C15.2744 26.2456 15.322 26.2888 15.3738 26.35L15.572 26.5738L15.138 25.5318L14.9258 26.1922L14.9258 26.1922Z" fill="white"/>
<path d="M4.71749 19.4151L4.77668 19.5412C4.80503 19.602 4.81613 19.6573 4.81001 19.7071C4.80378 19.7569 4.78258 19.8177 4.74609 19.8891L4.61719 20.1588L5.40861 19.3536L4.71749 19.4151Z" fill="white"/>
<path d="M131.882 12.0054C131.561 12.0054 131.275 12.0807 131.024 12.2313C130.783 12.3719 130.577 12.5828 130.406 12.864C130.245 13.1351 130.125 13.4664 130.044 13.8581C129.964 14.2497 129.924 14.6965 129.924 15.1986C129.924 15.8714 130.004 16.4387 130.165 16.9007C130.336 17.3626 130.582 17.714 130.903 17.955C131.234 18.186 131.641 18.3014 132.123 18.3014C132.565 18.3014 132.982 18.2362 133.373 18.1056C133.775 17.9751 134.162 17.8144 134.533 17.6236V20.0788C134.091 20.2897 133.624 20.4403 133.132 20.5307C132.64 20.6311 132.138 20.6813 131.626 20.6813C130.491 20.6813 129.568 20.4503 128.855 19.9884C128.142 19.5265 127.619 18.8839 127.288 18.0605C126.957 17.227 126.791 16.268 126.791 15.1835C126.791 14.3702 126.896 13.6271 127.107 12.9543C127.328 12.2715 127.65 11.6841 128.071 11.192C128.503 10.69 129.025 10.3034 129.638 10.0322C130.26 9.76111 130.973 9.62555 131.777 9.62555C132.259 9.62555 132.796 9.69082 133.388 9.82136C133.981 9.9519 134.518 10.1377 135 10.3787L134.081 12.6681C133.74 12.4774 133.393 12.3217 133.042 12.2012C132.7 12.0707 132.314 12.0054 131.882 12.0054Z" fill="white"/>
<path d="M125.625 20.5307H119.992V18.8739L121.272 18.3618V11.9302L119.992 11.4331V9.77625H125.625V11.4331L124.36 11.9302V18.3618L125.625 18.8739V20.5307Z" fill="white"/>
<path d="M114.071 14.2346H118.62V20.0336C118.098 20.2244 117.471 20.3801 116.737 20.5006C116.014 20.621 115.281 20.6813 114.538 20.6813C113.584 20.6813 112.731 20.4805 111.978 20.0788C111.225 19.6771 110.632 19.0646 110.2 18.2412C109.769 17.4178 109.553 16.3785 109.553 15.1233C109.553 13.9986 109.754 13.0246 110.155 12.2012C110.557 11.3778 111.154 10.7452 111.948 10.3034C112.741 9.85148 113.72 9.62555 114.885 9.62555C115.568 9.62555 116.205 9.69082 116.798 9.82136C117.39 9.94186 117.892 10.1025 118.304 10.3034L117.355 12.5778C116.963 12.387 116.572 12.2464 116.18 12.156C115.789 12.0556 115.367 12.0054 114.915 12.0054C114.322 12.0054 113.866 12.151 113.544 12.4422C113.223 12.7334 113.002 13.12 112.882 13.602C112.771 14.084 112.716 14.6162 112.716 15.1986C112.716 15.8614 112.801 16.4237 112.972 16.8856C113.153 17.3475 113.399 17.699 113.71 17.94C114.031 18.1709 114.398 18.2864 114.809 18.2864C114.87 18.2864 114.965 18.2814 115.096 18.2713C115.236 18.2613 115.372 18.2462 115.502 18.2261C115.643 18.2061 115.743 18.186 115.804 18.1659V16.4789H114.071V14.2346Z" fill="white"/>
<path d="M105.807 20.5308L105.446 18.5124H102.388L101.996 20.5308H98.6074L101.755 9.73108H105.973L109.166 20.5308H105.807ZM104.437 14.3402C104.386 14.0992 104.326 13.828 104.256 13.5268C104.186 13.2255 104.115 12.9143 104.045 12.5929C103.985 12.2616 103.934 11.9503 103.894 11.6591C103.854 11.9503 103.804 12.2565 103.744 12.5779C103.683 12.8992 103.623 13.2105 103.563 13.5117C103.503 13.813 103.442 14.0841 103.382 14.3251L102.96 16.1326H104.858L104.437 14.3402Z" fill="white"/>
<path d="M90.2651 20.5307L88.322 12.6381H88.2618C88.2819 12.8389 88.3019 13.11 88.322 13.4515C88.3421 13.7929 88.3622 14.1644 88.3823 14.5661C88.4023 14.9577 88.4124 15.3393 88.4124 15.7108V20.5307H85.7012V9.77625H90.1144L91.696 16.4037H91.7412L93.2022 9.77625H97.6155V20.5307H94.8139V15.6656C94.8139 15.3242 94.8189 14.9627 94.8289 14.5811C94.839 14.1895 94.849 13.823 94.8591 13.4816C94.8792 13.1301 94.8992 12.854 94.9193 12.6532H94.8591L93.0667 20.5307H90.2651Z" fill="white"/>
<path d="M75.839 9.77625C76.7528 9.77625 77.516 9.89674 78.1285 10.1377C78.7511 10.3787 79.218 10.7352 79.5293 11.2072C79.8406 11.6691 79.9962 12.2515 79.9962 12.9544C79.9962 13.3862 79.936 13.7828 79.8155 14.1443C79.705 14.5058 79.5293 14.8271 79.2883 15.1083C79.0574 15.3895 78.7561 15.6355 78.3846 15.8464L81.3067 20.5307H77.8122L75.824 16.6145H75.3872V20.5307H72.3145V9.77625H75.839ZM75.8541 11.9753H75.3872V14.4305H75.7939C75.9646 14.4305 76.1353 14.3903 76.306 14.31C76.4767 14.2196 76.6173 14.0791 76.7277 13.8883C76.8482 13.6874 76.9085 13.4213 76.9085 13.09C76.9085 12.859 76.8733 12.6632 76.803 12.5025C76.7327 12.3318 76.6223 12.2013 76.4717 12.1109C76.321 12.0205 76.1152 11.9753 75.8541 11.9753Z" fill="white"/>
<path d="M70.3899 16.253C70.3899 17.1568 70.2242 17.94 69.8928 18.6028C69.5614 19.2655 69.0644 19.7776 68.4016 20.1391C67.7489 20.5006 66.9255 20.6814 65.9314 20.6814C64.5055 20.6814 63.416 20.3048 62.6629 19.5517C61.9098 18.7885 61.5332 17.7091 61.5332 16.3133V9.77625H64.621V16.0874C64.621 16.8505 64.7365 17.4028 64.9674 17.7442C65.1984 18.0856 65.5297 18.2563 65.9615 18.2563C66.2829 18.2563 66.5439 18.181 66.7448 18.0304C66.9456 17.8798 67.0912 17.6438 67.1816 17.3225C67.272 17.0011 67.3171 16.5844 67.3171 16.0723V9.77625H70.3899V16.253Z" fill="white"/>
<path d="M55.7558 13.7678L57.2921 9.77625H60.6058L57.2921 16.3284V20.5307H54.2043V16.4187L50.8906 9.77625H54.2345L55.7558 13.7678Z" fill="white"/>
<path d="M48.3678 20.5308L48.0063 18.5124H44.9486L44.557 20.5308H41.168L44.316 9.73108H48.5334L51.7267 20.5308H48.3678ZM46.9971 14.3402C46.9469 14.0992 46.8866 13.828 46.8163 13.5268C46.7461 13.2255 46.6758 12.9143 46.6055 12.5929C46.5452 12.2616 46.495 11.9503 46.4548 11.6591C46.4147 11.9503 46.3645 12.2565 46.3042 12.5779C46.244 12.8992 46.1837 13.2105 46.1235 13.5117C46.0632 13.813 46.003 14.0841 45.9427 14.3251L45.521 16.1326H47.4188L46.9971 14.3402Z" fill="white"/>
<path d="M40.7508 17.2621C40.7508 17.8446 40.6152 18.3968 40.3441 18.919C40.083 19.4412 39.6513 19.8679 39.0488 20.1993C38.4463 20.5206 37.648 20.6813 36.6539 20.6813C36.1317 20.6813 35.6899 20.6562 35.3284 20.606C34.9769 20.5658 34.6556 20.4955 34.3644 20.3951C34.0732 20.2947 33.7518 20.1642 33.4004 20.0035V17.4128C33.9828 17.704 34.5652 17.9299 35.1476 18.0906C35.73 18.2412 36.2321 18.3165 36.6539 18.3165C36.8748 18.3165 37.0605 18.2814 37.2112 18.2111C37.3618 18.1408 37.4722 18.0454 37.5425 17.9249C37.6229 17.8044 37.663 17.6688 37.663 17.5182C37.663 17.3274 37.6178 17.1668 37.5275 17.0362C37.4371 16.9057 37.2664 16.7701 37.0153 16.6295C36.7643 16.489 36.3978 16.3182 35.9158 16.1174C35.4639 15.9266 35.0773 15.7308 34.756 15.53C34.4447 15.3292 34.1937 15.1032 34.0029 14.8522C33.8121 14.6011 33.6715 14.3099 33.5811 13.9786C33.4908 13.6371 33.4456 13.2355 33.4456 12.7736C33.4456 12.0807 33.6163 11.5033 33.9577 11.0414C34.3092 10.5695 34.7861 10.218 35.3886 9.98705C35.9911 9.74605 36.684 9.62555 37.4672 9.62555C38.2103 9.62555 38.858 9.70588 39.4103 9.86655C39.9726 10.0172 40.4295 10.1929 40.7809 10.3937L39.8621 12.638C39.4605 12.4271 39.0337 12.2615 38.5818 12.141C38.13 12.0104 37.7283 11.9451 37.3768 11.9451C37.166 11.9451 36.9953 11.9753 36.8647 12.0355C36.7342 12.0958 36.6388 12.1811 36.5785 12.2916C36.5183 12.392 36.4882 12.5075 36.4882 12.638C36.4882 12.8087 36.5434 12.9593 36.6539 13.0899C36.7744 13.2204 36.9802 13.366 37.2714 13.5267C37.5727 13.6773 37.9894 13.8832 38.5216 14.1442C39.0036 14.3652 39.4103 14.6112 39.7416 14.8823C40.073 15.1534 40.324 15.4798 40.4947 15.8614C40.6655 16.2329 40.7508 16.6998 40.7508 17.2621Z" fill="white"/>
</svg>
