<svg width="106" height="21" viewBox="0 0 106 21" fill="none" xmlns="http://www.w3.org/2000/svg">
<path d="M10.2909 0.79541L12.4584 7.4663H19.4726L13.798 11.5891L15.9655 18.26L10.2909 14.1372L4.61632 18.26L6.78382 11.5891L1.10923 7.4663H8.12341L10.2909 0.79541Z" fill="#FFCA27"/>
<path d="M52.9726 0.79541L55.1401 7.4663H62.1542L56.4797 11.5891L58.6472 18.26L52.9726 14.1372L47.298 18.26L49.4655 11.5891L43.7909 7.4663H50.8051L52.9726 0.79541Z" fill="#FFCA27"/>
<path d="M31.6327 0.79541L33.8002 7.4663H40.8144L35.1398 11.5891L37.3073 18.26L31.6327 14.1372L25.9581 18.26L28.1256 11.5891L22.451 7.4663H29.4652L31.6327 0.79541Z" fill="#FFCA27"/>
<path d="M74.3144 0.79541L76.4819 7.4663H83.496L77.8214 11.5891L79.989 18.26L74.3144 14.1372L68.6398 18.26L70.8073 11.5891L65.1327 7.4663H72.1469L74.3144 0.79541Z" fill="#FFCA27"/>
<path d="M95.6542 0.79541L97.8217 7.4663H104.836L99.1613 11.5891L101.329 18.26L95.6542 14.1372L89.9796 18.26L92.1471 11.5891L86.4725 7.4663H93.4867L95.6542 0.79541Z" fill="#FFCA27"/>
</svg>
